<?xml version="1.0" encoding="UTF-8" standalone="no"?>
<!-- Created with Inkscape (http://www.inkscape.org/) -->

<svg
   xmlns:dc="http://purl.org/dc/elements/1.1/"
   xmlns:cc="http://creativecommons.org/ns#"
   xmlns:rdf="http://www.w3.org/1999/02/22-rdf-syntax-ns#"
   xmlns:svg="http://www.w3.org/2000/svg"
   xmlns="http://www.w3.org/2000/svg"
   xmlns:sodipodi="http://sodipodi.sourceforge.net/DTD/sodipodi-0.dtd"
   xmlns:inkscape="http://www.inkscape.org/namespaces/inkscape"
   width="325.62292mm"
   height="202.96404mm"
   viewBox="0 0 1153.782 719.1639"
   id="svg2"
   version="1.1"
   inkscape:version="0.91 r13725"
   sodipodi:docname="map.svg">
  <defs
     id="defs4" />
  <sodipodi:namedview
     id="base"
     pagecolor="#ffffff"
     bordercolor="#666666"
     borderopacity="1.0"
     inkscape:pageopacity="0"
     inkscape:pageshadow="2"
     inkscape:zoom="0.70710678"
     inkscape:cx="243.6358"
     inkscape:cy="60.945365"
     inkscape:document-units="px"
     inkscape:current-layer="layer1"
     showgrid="false"
     units="mm"
     inkscape:window-width="1920"
     inkscape:window-height="1012"
     inkscape:window-x="0"
     inkscape:window-y="0"
     inkscape:window-maximized="1"
     fit-margin-left="15"
     fit-margin-top="0"
     fit-margin-right="0"
     fit-margin-bottom="0"
     inkscape:object-paths="false"
     inkscape:snap-midpoints="true" />
  <metadata
     id="metadata7">
    <rdf:RDF>
      <cc:Work
         rdf:about="">
        <dc:format>image/svg+xml</dc:format>
        <dc:type
           rdf:resource="http://purl.org/dc/dcmitype/StillImage" />
        <dc:title />
      </cc:Work>
    </rdf:RDF>
  </metadata>
  <g
     inkscape:label="Layer 1"
     inkscape:groupmode="layer"
     id="layer1"
     transform="translate(-168.58277,-92.922648)">
    <rect
       style="fill:#8dd35f;fill-opacity:1;stroke:#000000;stroke-width:1.00131691;stroke-opacity:1"
       id="rect4181"
       width="1158.7319"
       height="721.85309"
       x="168.58342"
       y="92.023712"
       ry="0" />
    <path
       style="fill:#008000;fill-opacity:1;stroke:#000000;stroke-opacity:1"
       d="m 1158.1836,682.40737 c 4.4387,-1.63243 6.1028,-0.23787 10.5904,-1.54527 12.4276,-3.6206 25.5836,-2.28099 39.6077,-1.11263 57.8385,-5.13651 35.0614,3.286 63.5827,-4.04554 40.0747,-8.84137 39.4822,-16.52773 56.8216,-10.80425 l 0.3014,147.81372 -1159.07311,-0.22811 -1.65906,-136.85136 c 31.05733,19.25471 28.47912,26.44362 50.77902,31.2987 28.13196,5.13163 28.32524,22.66064 59.39489,22.00305 35.75361,-0.75673 51.48607,-21.802 76.1149,-32.8635 22.31547,-10.0225 51.36843,-8.66234 76.35236,-14.67752 24.93488,-6.00337 45.79291,-19.39279 76.00352,-18.52867 29.73493,0.85051 57.62386,9.81047 86.89899,11.75489 29.65605,1.96972 36.49892,23.95968 52.86933,37.12631 16.78671,13.50146 42.92946,18.2034 59.85887,21.60135 12.44458,2.49779 22.04543,12.46159 32.70627,14.47585 10.67973,2.01782 22.75952,-0.24708 34.84638,-3.21772 7.97883,-1.96099 20.02862,-2.19097 29.27995,-5.21237 13.16355,-4.29909 23.50762,-11.66218 32.80399,-15.5165 6.57303,-2.72521 25.04019,0.63734 36.24315,-2.92244 23.80919,-7.56544 44.95133,-22.53356 61.2223,-25.94412 25.74047,-5.39546 55.45541,17.42391 80.54635,17.03954 32.4634,-0.49731 60.7633,-1.89003 88.8785,-9.55421 7.2293,-1.97069 11.7289,-9.12296 18.4204,-11.62846 5.9676,-2.23444 14.1695,0.20888 19.895,-2.10198"
       id="path4703"
       inkscape:connector-curvature="0"
       sodipodi:nodetypes="cscccccccssssssssssssssssc" />
    <path
       style="fill:#2ad4ff;fill-opacity:1;stroke:#000000;stroke-opacity:1"
       d="m 389.78344,154.95483 c 20.1486,-4.27704 30.20393,3.34311 49.70903,-4.06028 9.37741,-3.55931 26.23977,4.40049 40.5503,4.91062 13.43695,0.47898 24.41274,-6.49766 31.14668,-9.21533 0.19329,-0.0799 0.38843,-0.16682 0.58203,-0.24804 1.80818,2.51549 3.73034,4.7261 5.8418,6.48828 34.45359,28.75431 62.01111,46.02354 101.10547,52.87304 19.00427,3.32965 48.0995,-4.53127 67.90039,2.02344 23.01143,7.61749 35.16252,32.91988 63.16797,45.01563 21.1173,9.12071 50.6062,2.08867 80.58594,3.56445 17.55474,0.86415 34.33898,11.68555 52.20117,11.68555 32.36417,0 72.99469,15.83902 92.57422,14.24804 39.17416,-3.18318 46.50576,-16.31137 55.38866,-28.40429 11.3397,-15.43773 20.5414,-26.93506 51.4102,-45.48633 10.6572,10.20154 15.3077,18.45496 16.4004,34.85937 1.6807,25.23177 9.135,60.54342 11.9043,70.82813 3.3001,12.25579 0.3903,30.24019 2.7968,44.75977 2.5004,15.08577 -3.6308,30.36136 -0.7324,46.29296 2.4893,13.68258 -0.3847,27.89853 0.6699,41.33008 0.8257,10.51641 5.5799,20.27636 7.0918,30.75977 5.5906,38.76507 9.9753,73.29386 7.4629,110.9707 -0.9682,14.51902 1.9912,36.14724 2.4688,52.61133 0.2745,9.45866 6.836,19.50245 9.2793,30.17187 2.648,11.5633 1.3309,23.8603 5.5273,36.94532 1.2838,4.00313 3.0005,7.71101 5.0469,11.18554 -1.9837,8.03272 -18.3395,18.07932 -30.4785,24.9375 -6.775,3.82768 -13.4539,11.74162 -19.3711,19.48438 -3.9847,5.21401 -14.0674,9.90632 -18.625,16.15234 -4.254,5.82992 -3.5279,15.83915 -6.3535,22.75 -2.1229,5.19229 -8.9468,4.61738 -12.2098,9.96919 l 21.5351,0.18246 c 4.1203,-7.23047 0.1808,-22.63531 4.618,-27.36649 6.199,-6.60976 18.7839,-7.35412 23.2363,-15.14258 5.7854,-10.12033 16.8759,-12.00764 22.5684,-16.46875 5.3091,-4.16059 14.8757,-6.98033 18.0508,-10.77344 2.3269,-2.77973 6.7222,-4.55647 9.0058,-5.17578 10.8721,10.92078 24.3277,16.53813 34.5957,26.66797 11.6321,11.47553 19.2106,21.20043 29.2897,29.16888 8.5195,6.73542 3.2743,15.90114 12.5135,21.40215 l 28.2875,-0.81198 c -1.3598,-8.34838 -13.2913,-16.09926 -20.9383,-23.23756 -6.0414,-5.63949 -10.6834,-15.64711 -18.2754,-22.58789 -10.8254,-9.89681 -24.8824,-16.87993 -33.8887,-24.46484 -23.2026,-19.54074 -36.5078,-44.42299 -36.5078,-72.63281 0,-12.29094 -1.9414,-25.86949 -6.9844,-40.5293 -3.5668,-10.36858 0.2453,-25.38336 1.7071,-36.15039 4.4489,-32.76989 -4.7252,-60.52528 -3.8184,-85.58789 0.3837,-10.60502 -1.7344,-21.4443 0.3164,-32.29883 2.4438,-12.93503 8.8577,-25.89164 5.5332,-38.49805 -3.2801,-12.43831 2.6597,-31.15625 3.6739,-43.94531 2.1675,-27.33945 3.267,-48.43681 -1.7383,-70.49023 -3.1289,-13.78585 -1.2492,-28.04536 -3.3789,-43.48242 -1.3879,-10.0602 -7.765,-20.621 -7.0371,-31.875 0.578,-8.93572 6.0367,-24.19643 8.0878,-33.66993 3.1973,-14.76813 3.1677,-23.41975 2.3653,-33.2832 l 0.3945,-1.02539 c 13.9136,-6.92893 37.8948,-27.91769 52.3691,-43.0332 17.5339,-18.31029 36.5125,-34.11996 56.0547,-48.005862 l -797.6768,3.154754 c 5.4877,3.819469 5.51733,3.848094 12.98723,5.330568 3.5039,0.695383 6.06516,4.10485 8.5735,6.3466 3.96769,3.54603 5.87879,5.94373 4.45411,9.74288 -0.82879,2.12151 -3.48177,2.62533 -5.71629,3.67072 -3.67778,1.72059 -7.84511,3.28513 -12.87193,3.95191 -7.84962,1.04121 -17.48127,1.48334 -27.96099,0.28668 -7.87126,-0.89881 -15.32954,4.11923 -27.6586,4.88268 -7.02897,0.43525 -12.74222,7.06581 -20.44029,7.50954 -8.60574,0.49604 -18.83246,0.89678 -28.52401,2.40826 -13.85651,2.16104 -23.61854,12.28099 -37.60286,15.30805 -13.33096,2.88563 -23.40774,8.60866 -38.25924,9.25747 -11.70656,0.51142 -23.34471,-2.06304 -34.52678,-0.33341 -10.104,1.56287 -28.21275,8.24177 -38.51551,8.07231 -12.82634,-0.21098 -20.29897,3.66791 -33.12026,5.47242 -4.3881,0.90716 -18.2874,4.84535 -18.38921,9.01092 l -0.51701,21.15394 c -0.0983,4.02063 10.13192,-3.47473 14.79271,-4.95756 6.92565,-2.2034 9.96793,-0.30988 16.60117,-1.865 19.80381,-4.48829 39.63538,-18.92217 59.03765,-20.13753 10.30744,-0.64566 22.07433,0.57951 31.69168,0.84597 6.15712,0.17059 11.82955,-2.9582 14.37461,2.30599 1.90269,7.54455 -2.84397,14.03502 -14.0157,33.34677 -4.39868,7.60367 -8.43652,18.75309 -6.37316,31.58492 1.74665,10.8622 6.10614,11.76504 15.47475,26.36043 6.17241,9.61602 14.35585,20.00126 19.29535,33.50131 2.88619,7.8882 12.75994,23.47193 13.08991,29.73314 0.73476,13.94234 3.44817,42.47447 -0.0657,57.07801 -3.76981,15.66712 -2.19087,27.62214 2.61111,41.98463 4.22685,12.64228 17.8519,12.12117 28.47501,16.07351 6.42832,2.39165 31.85009,3.39079 44.56742,3.72979 25.25821,0.67331 61.00037,-1.08011 72.6517,9.48138 7.00562,6.68085 17.87555,8.78009 25.55559,13.83732 5.81783,3.83098 18.88776,19.98514 24.44931,51.68639 1.70846,9.73836 1.96133,31.48826 12.13876,50.36207 8.11558,15.05016 20.49722,30.70613 25.74344,50.00877 4.44394,16.35078 1.87094,36.20345 6.94715,51.32813 3.89404,11.60238 -3.55015,25.12508 -6.6315,37.42551 -4.3967,17.55114 3.3353,34.8915 0.52955,48.57871 -5.25041,25.61293 -3.37387,33.19964 -3.03541,45.94411 l 40.99625,0.67563 c 3.39683,0.056 -4.28884,-8.52595 -5.06533,-36.66811 -0.39936,-14.47387 -8.29221,-32.29701 -7.34935,-52.75143 0.69861,-15.15558 6.68297,-31.13183 8.24148,-48.01863 1.08824,-11.79127 -1.35801,-23.79705 -3.44305,-37.24825 -2.91258,-18.78992 -7.24251,-35.73369 -20.6566,-52.31811 -10.61957,-13.12943 -14.21108,-30.93189 -22.003,-44.33508 -10.11646,-17.40169 -9.57929,-35.37512 -13.63945,-52.76541 -3.46144,-14.82587 -13.31818,-17.43161 -22.4808,-26.91489 -7.61002,-7.87633 -21.34714,-12.32431 -29.72978,-16.69835 -9.96438,-5.19939 -21.63858,-5.97281 -23.61466,-7.02417 -4.09526,-2.17887 -13.63909,-1.42623 -19.8758,-1.58689 -10.78461,-0.27781 -20.14552,-0.16777 -35.30341,-0.21032 -27.74424,-0.0779 -53.31193,1.8235 -62.7536,-13.60106 -5.40097,-8.8234 -1.15856,-25.49597 0.81454,-36.03351 3.05512,-16.31617 -2.55805,-24.81234 0.79937,-40.08792 2.97482,-13.53485 0.27748,-13.44535 -4.11792,-24.09315 -5.97374,-14.47134 -7.19645,-14.55613 -11.75654,-28.03685 -3.44321,-10.17898 -15.34945,-14.82936 -21.89316,-25.9482 -7.97259,-13.54671 -9.28319,-19.51898 -7.56483,-37.0924 0.93115,-9.52274 5.23665,-18.72024 9.38373,-25.12276 4.80328,-7.4156 8.63516,-13.48299 11.39897,-19.48749 6.01482,-8.11023 8.83756,-15.32032 16.76143,-20.48142 7.50246,-4.88662 9.50561,-1.84813 24.82173,-3.67022 10.13105,-6.01531 21.21186,-8.23144 21.21186,-8.23144 z"
       transform="translate(0,2.0165354e-4)"
       id="path4689"
       inkscape:connector-curvature="0"
       sodipodi:nodetypes="cssccsssssssscssssssscsscssssccsssccssccssssssssscssssccsccsscsssssssssscssscsscssssssssscssssssscssssssssssssssssssssscscc" />
    <path
       transform="matrix(-0.58120272,0.81375881,0.65908213,0.75207097,0,0)"
       style="fill:#552200;fill-opacity:1;stroke:#000000;stroke-width:0.69265294;stroke-opacity:1"
       d="m -367.05935,697.90727 c 0,0 5.36415,4.78891 15.35521,6.73199 9.85603,1.91681 21.00064,2.1516 27.61891,2.07328 6.08808,0.35408 29.68049,-8.19301 37.1468,-8.42844 6.04751,-0.44138 14.50361,2.52306 18.43286,4.96902 3.28019,2.55292 31.72293,12.5953 38.2087,14.49769 9.45788,2.56602 13.19651,2.5648 19.70495,3.41069 3.81813,1.15665 17.71389,5.72831 17.71389,5.72831 0,0 33.39213,11.68216 41.70065,11.02681 3.78836,-0.40792 13.29501,-0.14911 19.14932,-1.15584 0.53991,-0.0928 14.02925,-2.68516 22.10339,-3.37785 1.26138,-0.10822 -0.36521,1.10358 11.370774,-8.1807 1.138516,-0.90067 4.676578,-2.87939 8.191805,-7.43351 1.252183,-1.62226 1.90812,-4.31736 3.47793,-6.31394 1.795651,-2.28383 4.553293,-3.85984 6.748819,-5.41399 2.208605,-1.56342 4.14882,-2.03705 6.809768,-2.73963 1.923404,-0.50784 4.223375,-1.13529 7.273469,-2.3804 2.469217,-1.00798 6.067284,-3.94508 8.459538,-8.16446 2.802397,-4.94276 4.360341,-11.46222 6.667891,-15.95555 5.266015,-10.25416 10.168216,-14.78469 15.743044,-24.78422 4.182496,-7.50211 13.662552,-17.95439 20.016478,-25.45274 12.8169204,-15.12542 8.1335665,-8.76818 21.9428892,-24.74144 2.9965293,-3.46608 10.8622448,-12.92919 15.3365118,-19.27932 2.928712,-4.15659 4.171486,-5.08165 9.494025,-13.02754 12.179316,-18.18222 11.713618,-20.94887 12.416456,-25.09855 1.639072,-9.67737 3.460238,-11.55883 0.908598,-17.85635 -0.766806,-1.8925 -4.994651,-8.7812 -13.270184,-13.25843 -7.472424,-4.04274 -18.747499,-5.49792 -24.8093072,-10.59654 -6.45810464,-5.43195 -13.8197373,-10.05491 -18.8949298,-15.55021 -5.052437,-5.47066 -12.835259,-13.08874 -17.383305,-20.43279 -2.897703,-4.67913 -2.621098,-11.19417 -4.969673,-15.02439 -1.121857,-1.8296 -2.225341,-10.51199 -4.585114,-18.54238 -1.411904,-4.80476 -1.026901,-12.06096 -1.99493,-19.20672 -0.629471,-4.6466 -2.625729,-9.11554 -3.34399,-13.281 -0.761516,-4.41631 -1.513426,-12.02263 -4.334627,-18.26522 -1.604868,-3.55116 -4.443531,-8.57994 -8.38334,-11.00105 -2.59631,-1.59549 -7.742328,-3.37091 -12.13821,-3.9821 -1.61549,-0.22461 -8.693129,-0.60659 -13.18292,-1.50806 -0.779095,-0.15643 -6.369723,-3.39903 -10.077859,-2.41861 -2.387424,0.63123 -3.51281,3.81188 -5.66707,6.52382 -0.783625,0.98648 -2.150937,1.16337 -3.304927,1.98085 -1.923,1.36224 -3.74482,3.3158 -4.88846,5.04935 -1.12949,1.71211 -2.56887,3.65894 -3.08303,5.23518 -0.90833,2.78461 -0.5988,3.25894 -1.42569,4.70744 -0.4588,0.80369 -1.4294,1.13504 -2.31318,2.0105 -0.96038,0.95135 -1.87639,2.49393 -3.44812,4.6373 -2.02444,2.76073 -2.54669,5.62023 -4.96143,8.88176 -2.21598,2.99307 -3.88501,6.22286 -6.26045,8.97928 -3.87029,4.49101 -10.05829,6.97797 -14.55874,12.98089 -3.76386,5.02042 -7.39384,11.34304 -11.83082,17.0103 -6.29219,8.03689 -9.89761,17.53884 -17.27857,26.57333 -4.83818,5.92206 -6.04956,10.98919 -11.26713,17.21328 -4.14668,4.94662 -9.64378,9.22837 -13.99856,14.31833 -5.2138,6.09399 -9.81149,16.59459 -13.20218,23.84126 -2.62993,5.62074 -4.01313,10.27329 -6.21676,15.23896 -4.60594,10.37905 -8.48982,14.54117 -15.99083,22.58066 -7.66509,8.21534 -12.35993,20.10011 -20.18472,28.02648 -6.88291,6.97228 -13.53169,16.28014 -20.41297,22.80868 -7.08323,6.72014 -14.18963,16.79052 -21.05768,22.85493 -9.18545,8.11064 -18.31987,14.45571 -27.50965,19.16212 -8.36749,4.28529 -11.94536,3.68983 -18.70903,6.51868 -2.76417,1.1561 -5.65659,0.97052 -7.63313,2.61465 -1.722,1.43239 -3.5463,2.10626 -5.24755,3.28075 -2.5603,1.76756 -4.93924,3.97558 -7.04702,6.08238 -3.35065,3.34907 -5.77991,7.94895 -8.08816,10.86396 -4.84912,6.1238 -7.09169,10.87925 -7.33996,10.86656 -0.24083,-0.0123 -2.03843,-3.17665 0.15958,-9.22317 0.59063,-1.62475 2.94547,-4.27324 3.92942,-6.14791 1.3241,-2.52275 4.14246,-5.26225 6.1251,-8.0645 3.35482,-4.74166 8.81223,-9.10283 14.00452,-14.1848 2.6385,-2.58244 8.75168,-3.62205 12.57397,-5.16087 4.22908,-1.70259 10.24383,-2.9697 15.19054,-4.75807 8.89381,-3.21536 15.7245,-7.84703 23.95862,-15.64723 7.43481,-7.04301 13.76039,-16.32448 21.53314,-24.18625 6.39827,-6.47155 11.16243,-15.40302 17.65911,-22.26856 7.74271,-8.18232 15.17814,-18.89701 22.82596,-27.40401 2.98154,-3.3165 10.14608,-10.58905 12.28461,-14.98104 3.84926,-7.9054 4.79089,-13.26109 8.82121,-21.59969 4.13875,-8.56294 7.9365,-17.08969 14.09991,-24.24658 3.80251,-4.41544 8.90281,-7.57129 12.55592,-11.85644 4.69914,-5.51214 6.17717,-12.60664 10.59128,-17.82478 7.91069,-9.35163 12.67588,-19.14981 19.43044,-27.20085 5.66995,-6.75825 8.56403,-14.33702 13.20509,-19.88076 2.98686,-3.5678 10.82032,-8.36652 13.28228,-11.33642 3.07708,-3.71193 5.50063,-7.30031 6.89813,-10.61297 1.3032,-3.08912 1.03773,-5.13431 1.60329,-6.92646 0.52308,-1.6575 1.16222,-3.32159 1.97392,-4.41661 0.9552,-1.28861 0.92982,-1.19757 1.77883,-2.78361 0.72171,-1.34824 0.72199,-2.44425 1.5375,-4.1527 0.96308,-2.01761 1.5585,-3.32897 3.10211,-5.66074 1.03255,-1.55978 3.3136,-3.45259 5.12069,-4.48234 1.55913,-0.88846 3.08007,-0.9899 4.16918,-2.32991 1.9671,-2.42026 0.92616,-5.80781 3.08499,-7.82038 7.018663,-6.54314 16.940378,-7.07225 17.621653,-6.64669 1.986288,1.24075 11.239769,3.35803 14.961902,4.4761 6.865096,2.06218 16.827736,4.14227 18.320676,4.60453 2.231435,0.69091 6.524557,5.41862 9.529233,7.56358 3.852388,2.75011 3.739862,8.61386 5.621473,11.97867 4.03595,7.21733 5.057882,17.58706 7.095315,25.9905 1.737073,7.16459 2.947393,14.70898 3.870426,18.75556 2.1315,9.34451 4.698108,17.91785 6.098185,21.03339 4.000654,8.90251 1.947388,12.87542 5.667092,19.24405 2.330737,3.99053 4.964199,4.86954 10.2336874,12.63869 2.1236644,3.13106 6.1613982,4.08146 8.1200334,5.75762 4.3212977,3.69806 7.1435282,5.14109 12.0054962,6.51489 10.426446,2.94609 16.889313,9.17106 24.262376,12.99304 7.844601,4.06642 13.444703,10.48459 14.80868,14.1686 1.44986,3.91596 4.109157,8.78028 2.307381,19.4367 -0.356418,2.108 -4.799051,11.57131 -8.572085,21.70699 -2.877384,7.72966 -7.635349,17.64174 -7.624535,23.18941 0.02288,11.73829 13.199189,9.88323 16.586287,11.6266 5.552817,2.85809 13.060583,4.46119 19.611967,7.74177 8.68469,4.34882 9.059259,9.84351 18.869966,14.72553 4.857341,2.41712 9.534631,7.48841 14.895661,9.45472 5.94291,2.17972 14.47331,4.11846 21.51389,6.49453 8.39239,2.83228 12.28863,8.81122 22.67108,13.44571 6.76869,3.02139 12.4513,4.48226 18.3438,8.35225 6.47046,4.24959 15.07543,6.26956 21.64972,10.69456 3.91516,2.6352 10.94122,4.08919 17.53842,4.59642 11.20375,0.86142 15.84358,-0.52003 26.82852,-4.14934 2.38177,-0.78691 8.47352,-0.84302 14.19584,-3.06186 7.0373,-2.72872 13.61056,-4.63853 15.70418,-3.18228 5.25567,2.6295 0.63473,4.73603 -3.11452,6.52999 -2.77519,0.0898 -0.0493,3.22016 -5.542,4.90501 -6.16632,1.89149 -20.05618,7.91666 -28.13103,10.09966 -7.34455,1.98556 -27.70392,3.04294 -35.54147,-1.7789 -7.84534,-4.82663 -20.71587,-8.82265 -25.73012,-11.9751 -9.54287,-5.99957 -20.94503,-9.06935 -33.12613,-19.00668 -7.91949,-6.46072 -13.34331,-4.96859 -24.94756,-7.62745 -7.61193,-1.74412 -9.62149,-0.65593 -17.349602,-4.46937 -7.973192,-3.93437 -12.573861,-10.44553 -15.196254,-12.59875 -15.461324,-12.69513 -4.594242,-5.29681 -20.707256,-15.88244 -9.475218,-6.22486 -16.827839,-6.04817 -22.439389,-7.27776 -4.646642,-1.01816 -2.962634,-4.1408 -12.970652,3.87437 -10.596289,5.45238 -8.398624,5.70414 -15.7239616,11.62416 -7.1470327,6.0435 -12.8249633,11.46359 -17.8233845,17.95633 -4.7854059,6.21605 -15.5000509,21.10267 -18.8612919,27.2654 -7.486312,13.72592 -11.002794,18.25819 -15.98333,26.2298 -2.377577,3.80543 -5.73484,11.20259 -9.252086,15.39486 -6.049188,7.21012 -12.978607,14.30755 -15.274881,14.82339 -3.096851,0.69569 -4.152037,1.01405 -6.414928,1.28765 -1.330575,0.16087 -3.489984,1.42708 -4.785056,2.51153 -2.092013,1.75178 -5.713741,4.32662 -7.612301,7.23704 -2.109345,3.23354 -2.461938,6.7936 -4.089817,8.23686 -6.286771,5.57377 -10.81067,10.30007 -10.25268,10.89996 3.523505,3.78808 7.753717,10.09398 8.288065,10.6738 6.758438,7.33355 10.101249,14.13656 18.066166,28.87406 4.219206,7.8068 7.185225,20.45796 10.922214,32.3559 3.073564,9.7857 6.906075,18.805 10.339584,26.41503 7.01085,15.53885 11.91353,31.82822 19.01599,45.32203 5.118403,9.72434 12.667448,18.44134 13.459243,24.28707 0.439323,3.24347 -0.432924,10.719 -1.656646,21.0456 -0.907908,7.66154 -0.991862,16.17007 -6.234713,29.48791 -5.506219,13.98685 -23.005835,26.73701 -35.248419,47.34958 -6.281514,10.576 -11.663972,21.1415 -19.709673,34.4438 -5.274087,8.7199 -11.964005,23.6584 -18.297901,33.6397 -9.29441,14.6466 -19.04441,23.7948 -36.46334,36.3482 -5.46724,3.9401 -19.20853,9.7673 -24.76636,14.3401 -10.17729,8.3735 -21.56075,21.0755 -32.65779,27.5953 -18.15459,10.6663 -37.90417,16.1349 -54.82165,31.5792 -20.78577,18.9757 -34.0597,41.9827 -50.20071,62.9392 -11.50622,14.9389 -27.28352,27.2914 -38.4307,39.1276 -10.7343,11.3978 -19.30614,18.9497 -28.58941,26.212 -4.66817,3.6519 -13.0704,12.0325 -21.59999,18.2545 -5.07969,3.7054 -9.62196,8.1198 -14.0302,8.8394 -3.6314,0.5928 -7.1975,2.8831 -11.46755,-1.5978 -1.50247,-1.5767 -3.331,-3.6256 -1.26322,-8.2128 1.08068,-2.3973 1.94185,-7.678 3.80665,-11.5758 1.76156,-3.682 1.76021,-7.1978 3.35598,-10.9407 1.91533,-4.4923 4.50617,-5.7701 7.51327,-11.9561 1.06486,-2.1906 4.38312,-8.4297 5.95592,-11.3928 1.70596,-3.2141 5.73502,-12.4777 7.06778,-16.6458 2.26096,-7.0709 7.87602,-14.2676 10.27293,-20.5154 2.27491,-5.9298 3.63656,-9.4301 6.93296,-15.6642 5.19552,-21.5178 1.97316,-14.111 8.67296,-26.7486 0.92738,-3.838 4.35036,-13.2202 4.81964,-15.9194 1.19188,-6.8553 0.76868,-6.9123 0.69868,-12.8246 -0.0326,-2.7563 -0.76568,-6.902 -0.53336,-11.3983 0.18968,-3.6713 1.53443,-7.2367 1.61012,-10.3871 0.0703,-2.9245 -1.12351,-5.4305 -1.08178,-8.8587 0.0523,-4.2985 -2.12216,-10.7467 -2.15734,-15.0382 -1.99446,-7.1688 -0.88981,-13.3201 -0.77617,-20.0247 -0.1186,-7.3648 -1.32124,-8.6799 -1.38249,-15.773 -0.0526,-6.092 0.61268,-12.5695 0.56429,-18.5096 -0.0391,-4.8037 1.21064,-11.5002 1.23844,-16.1161 0.0408,-6.7762 3.40152,-13.3318 3.28481,-19.3703 -0.25804,-13.3507 3.34041,-24.2714 1.97977,-32.9 -1.01473,-6.435 1.02952,-15.55946 -0.0479,-20.86212 -0.72865,-3.58611 -4.78568,-4.62408 -4.91076,-4.96143 -3.14999,-12.03525 12.79718,-9.52872 16.62799,-2.30771 0.50696,0.31088 1.14154,6.06332 0.10815,13.10785 -0.86366,5.88771 -0.71155,13.82111 -1.83772,22.93721 -0.85739,6.9403 -0.63273,13.9356 -0.57831,22.9081 0.0268,4.4169 -2.12359,9.6972 -2.13334,15.013 -0.007,3.871 1.17218,9.7349 0.30735,13.4974 -2.08269,9.0607 -1.5578,11.5897 -1.69496,20.8663 -0.0932,6.3033 0.50652,17.1305 -0.70775,23.9576 -2.91392,16.3833 8.74041,23.273 6.00159,40.0499 -0.98368,6.0256 0.55279,20.0331 -0.44804,25.9985 -2.3217,13.8384 -5.07428,21.9653 -7.60933,35.1305 -1.99461,10.3585 -6.57482,18.5564 -10.83451,27.9155 -4.43862,9.7523 -12.2554,20.7018 -17.18102,28.6304 -6.32267,10.1774 -8.43772,14.6721 -12.17837,22.5362 -3.17134,6.6673 -9.83618,19.8925 -10.81663,24.9912 -1.81072,9.4162 -6.19105,14.8019 -5.70256,15.4394 1.7977,2.3461 7.6238,-3.035 12.73656,-8.7 5.27394,-5.8437 16.10609,-14.1989 19.88535,-17.6305 8.48651,-7.7057 17.52603,-14.0703 30.64936,-28.1397 8.28968,-8.8872 23.07907,-20.0698 33.22373,-32.6233 6.66064,-8.2421 15.97127,-22.9362 23.60199,-32.4768 11.4757,-14.348 20.55432,-27.2327 31.31516,-36.9817 13.0449,-11.8182 30.63074,-21.0705 45.6853,-29.1993 6.98672,-3.7726 25.46228,-17.613 31.5894,-22.8221 10.21437,-8.684 18.10979,-13.7941 29.78143,-21.264 7.68569,-4.9189 17.69623,-9.7341 24.74754,-16.4975 6.01951,-5.7737 9.23469,-13.4082 14.10596,-18.9061 10.9583,-12.368 14.272753,-21.6842 22.724503,-34.5247 8.256799,-12.5444 8.439845,-17.9614 15.972703,-30.5181 3.425396,-5.7098 20.804239,-24.26564 29.026983,-37.04599 6.501769,-10.10549 5.217412,-15.72362 6.194197,-20.39751 1.554889,-7.44009 2.782251,-10.992 2.694574,-16.75806 -0.11961,-7.86612 -0.208203,-16.47214 -0.411982,-17.02311 -1.777152,-4.80504 -6.015606,-9.70821 -9.252945,-15.88395 -2.713686,-5.1768 -5.855426,-11.1899 -9.204173,-19.81348 -1.945567,-5.01016 -5.763659,-18.92568 -7.776351,-24.20023 -4.178893,-10.9514 -9.116588,-21.2985 -13.045851,-32.61467 -4.015418,-11.5643 -6.518195,-19.79675 -11.18966,-30.03466 -1.542926,-3.38145 -2.902438,-8.8466 -5.364614,-13.33994 -3.618077,-6.60281 -8.482883,-12.3345 -10.509434,-16.33544 -0.55555,-1.0968 -8.24184,-12.50866 -8.24184,-12.50866 -1.50314,0.32965 -6.57515,5.50222 -11.03495,12.38324 -3.95392,6.10049 -10.55381,13.674 -16.46993,22.17904 -2.38965,3.43537 -6.63579,7.09059 -9.15451,10.61135 -6.50791,9.09695 -13.44749,18.43836 -21.10839,28.96582 -5.29469,7.27587 -11.04661,15.55116 -16.77749,22.93202 -7.84429,10.10275 -16.04714,23.1671 -25.22157,34.44947 -6.40883,7.88134 -13.84598,14.5783 -19.61772,20.12273 -2.86508,2.75224 -9.42697,9.14719 -17.08797,17.03247 -5.41378,5.57227 -11.62132,12.15376 -16.38226,17.55269 -6.13297,6.95482 -12.71225,12.4981 -19.4093,15.07315 -7.26474,2.79333 -14.70378,7.13513 -23.98402,11.51276 -19.76564,9.32376 -34.28044,15.43071 -50.80095,17.7128 -7.02082,0.96983 -22.48768,4.09031 -29.86145,5.59962 -10.40611,2.12998 -13.15315,-2.81421 -33.33733,-1.61988 -7.65918,0.4532 -22.83815,-0.50255 -33.56139,1.83568 -16.95513,3.69712 -25.6144,-1.016 -41.82599,4.15195 -5.14447,1.63996 -19.92076,4.12011 -24.74428,4.79121 -14.29578,1.98898 -17.04137,0.72075 -28.47277,4.87078 -11.1813,4.0591 -22.81131,7.2857 -34.39215,11.7756 -9.89933,3.8379 -20.49668,8.1636 -31.573,14.1445 -7.3907,3.9908 -22.01018,12.0071 -28.33779,14.4651 -6.17695,2.3994 -11.13359,7.8302 -15.59638,11.87 -4.50446,4.0775 -6.87369,6.7674 -10.12045,9.5983 -1.44122,1.2566 -2.53908,4.9241 -6.31104,8.8786 -2.43971,2.5578 -7.16973,2.9528 -11.09741,5.3534 -4.78693,2.9258 -10.33619,6.1325 -13.71154,10.0515 -2.99671,3.4794 -5.38747,8.5388 -7.14724,11.8732 -0.82325,1.5599 -0.81699,4.6505 -3.66027,8.8376 -1.14707,1.6892 -4.25463,2.5768 -6.69791,4.9738 -2.47735,2.4304 -7.03019,2.9942 -10.16378,3.0115 -4.52521,0.025 -8.58991,-0.8992 -13.79249,-2.4833 -4.85032,-1.4768 -10.33135,-1.6351 -14.72526,-3.8175 -10.61909,-5.2744 -17.48312,-8.7907 -17.62194,-9.0805 -1.13679,-1.0025 9.14591,-7.8273 6.67798,-9.3243 -1.061,-0.9357 20.76846,8.8157 18.12797,7.899 -4.62069,-1.6041 10.16988,4.1249 18.00359,4.4846 4.17839,0.1919 7.30403,-1.561 9.02407,-4.0839 2.92702,-4.2932 2.54407,-9.2197 3.38505,-10.9897 2.36831,-4.9846 4.00936,-9.3009 10.6136,-15.2512 3.11168,-2.8036 9.62954,-7.0922 14.8286,-8.9763 3.85547,-1.3972 6.54837,-0.329 8.88773,-2.3602 3.45014,-2.9957 7.09434,-3.2195 10.15477,-5.823 7.52862,-6.4047 13.0653,-13.8408 14.72209,-14.9062 4.32173,-2.7791 7.82516,-6.8171 13.03271,-10.0196 9.50669,-5.8464 15.78409,-4.2736 28.47693,-11.3922 8.84999,-4.9634 21.12007,-9.9237 30.52705,-15.0862 6.51794,-3.577 17.50666,-6.5857 24.30702,-8.84738 6.38485,-2.12337 8.59954,-4.34443 19.11583,-5.83645 10.71558,-1.5203 19.47053,-1.27117 30.27633,-2.99394 13.84087,-2.20666 24.25272,-6.211 34.48203,-7.35294 16.35626,-1.82591 11.85325,0.008 27.04063,-1.3951 10.29524,-0.95114 15.6585,-4.13604 25.16393,-3.84186 7.37995,0.2284 14.85106,-0.87338 22.41857,0.16889 8.40117,1.15709 16.37289,-1.27512 24.75941,-1.49676 11.15577,-0.29484 22.64366,-3.14624 33.40005,-4.55075 12.16529,-1.58848 21.45059,-7.46077 32.24931,-10.65479 5.2695,-1.5586 12.01134,-6.14013 16.86874,-8.10906 8.09831,-3.28263 15.52028,-7.26445 22.26075,-12.99038 6.15139,-5.22552 12.57982,-11.23981 17.71452,-16.57738 9.5123,-9.88811 16.96958,-18.5996 20.32401,-21.76814 9.11681,-8.61161 20.00223,-20.3482 27.2698,-31.22362 6.07736,-9.09436 11.64701,-17.87206 18.72604,-26.3083 8.15446,-9.71785 15.64684,-19.01342 22.21799,-28.90676 8.01922,-12.0735 15.62619,-19.00589 22.09252,-28.49134 5.0096,-7.34857 8.8606,-12.07527 12.20693,-17.39433 4.33637,-6.89277 7.49191,-10.47486 10.51599,-14.94469 3.80058,-5.61756 6.93066,-11.27402 6.70469,-11.2582 -0.83896,0.0587 -6.02455,2.12605 -10.1471,2.9791 -3.24771,0.67203 -5.59223,0.16733 -6.29967,0.23152 -7.36354,0.66813 -15.36422,1.95734 -18.31823,1.43436 -10.80946,-1.55007 -44.13863,-10.83121 -44.13863,-10.83121 0,0 -14.19176,-3.0939 -18.48878,-5.43959 -7.39121,-2.27204 -17.47659,-2.20033 -21.07455,-2.9955 -4.98885,-1.59712 -34.86451,-12.42282 -38.27489,-15.43021 -2.87987,-2.53958 -7.77681,-4.52112 -15.09036,-4.34702 -6.90113,-0.14447 -32.58525,8.85244 -37.96779,8.79794 -6.22181,0.4543 -19.94709,0.68924 -29.46372,-2.46073 -0.96729,-0.32017 -16.47731,-8.96691 -16.86873,-4.44869 -0.24178,2.7909 -1.03343,7.18554 -0.57862,11.45577 0.37909,3.55925 -1.54642,10.10022 -1.28817,14.71795 0.34855,6.23237 -2.46281,18.90367 -5.13323,26.869 -2.89407,8.6324 -6.16694,14.70604 -9.62186,23.29875 -2.27952,5.66938 -10.77597,13.62991 -13.87793,17.90161 -2.54201,3.5006 -6.08452,7.96479 -5.57966,10.98947 0.79727,4.77653 3.66761,7.52624 4.7629,12.36175 1.66703,7.35966 1.09542,11.58771 3.13233,19.03191 1.40207,5.12406 3.1754,10.57113 6.10212,14.89841 2.64024,3.9037 5.38357,10.85588 7.09266,15.53783 1.49576,4.09756 6.06934,9.52767 7.34572,13.75443 1.99519,6.60714 6.82667,11.36701 8.00744,17.51367 1.18323,6.15955 4.10459,12.16015 4.59963,17.98837 0.27069,3.18692 2.81149,6.58026 4.03194,9.15406 2.39948,5.06028 5.20217,9.09558 8.28878,12.98543 2.09379,2.63868 4.71503,5.41554 5.89757,7.60803 1.49597,2.7736 2.57907,5.17515 3.36292,7.20987 2.21852,5.75883 2.03991,8.57917 2.03991,8.57917 0,0 -4.48004,9.45587 -10.60808,3.93979 -3.31462,-2.98362 -5.03536,-11.89054 -9.02873,-19.94517 -3.43159,-6.92152 -9.0846,-12.79978 -12.62305,-18.50829 -3.21196,-5.18179 -4.45032,-14.07367 -7.07656,-21.6257 -3.83734,-11.03468 -8.88404,-21.10639 -12.89551,-28.23682 -2.88506,-5.12822 -4.26575,-12.06624 -6.57503,-17.48768 -4.05805,-9.52695 -8.21038,-16.67722 -8.58865,-17.59855 -0.88875,-2.16466 -2.85405,-8.08551 -2.68731,-13.59844 0.2219,-7.33633 -3.37925,-13.10882 -4.99611,-16.48378 -2.17303,-4.06198 2.70738,-11.9009 4.27435,-16.58814 5.63066,-10.12874 13.76298,-12.82404 15.98049,-17.57397 2.42311,-4.03219 6.53444,-16.81978 6.53444,-16.81978 l 5.29411,-24.8517 3.01328,-22.43651 -0.05,-12.05376 z"
       id="rect4198"
       inkscape:connector-curvature="0"
       sodipodi:nodetypes="cscccccccssssssssssssssssssssssssssssssssssssssssssssssssssssssssssssssssssssssssssssssssssssssssssssssssssssssssssssssssccssssssssssccssssssssssssssssssssssssssssssssssssssccsssssccssssssccssssssssssssssssssssssssssssssssssssssssssssssssssssssssssssssssssssssssccssssssssssssssssssssssssssssssssssscccccccssssssssssssssssssscsssssscscccccccc" />
    <ellipse
       style="fill:#ff0000;fill-opacity:1;stroke:#000000;stroke-opacity:1"
       id="path4183"
       ry="11.397426"
       rx="10.922532"
       cy="469.95932"
       cx="552.20435" />
    <ellipse
       style="fill:#000080;fill-opacity:1;stroke:#000000;stroke-opacity:1"
       id="path4188"
       cx="1128.3176"
       cy="678.47412"
       rx="10.17218"
       ry="10.287411" />
    <ellipse
       style="fill:#000080;fill-opacity:1;stroke:#000000;stroke-opacity:1"
       id="path4190"
       cx="290.59006"
       cy="190.63298"
       rx="10.073996"
       ry="9.8501291" />
    <ellipse
       style="fill:#ff0000;fill-opacity:1;stroke:#000000;stroke-opacity:1"
       id="path4192"
       cx="1172.8481"
       cy="188.61818"
       rx="12.536528"
       ry="12.312661" />
    <path
       style="fill:#ff0000;fill-opacity:1;stroke:#000000;stroke-opacity:1"
       id="path4196"
       sodipodi:type="arc"
       sodipodi:cx="680.54315"
       sodipodi:cy="219.02017"
       sodipodi:rx="13.65586"
       sodipodi:ry="13.119259"
       sodipodi:start="0"
       sodipodi:end="6.2795252"
       d="m 694.19901,219.02017 a 13.65586,13.119259 0 0 1 -13.64336,13.11926 13.65586,13.119259 0 0 1 -13.66834,-13.09525 13.65586,13.119259 0 0 1 13.61836,-13.14322 13.65586,13.119259 0 0 1 13.69325,13.07119"
       sodipodi:open="true" />
    <ellipse
       style="fill:#ffff00;fill-opacity:1;stroke:#000000;stroke-opacity:1"
       id="path4193"
       cx="849.89545"
       cy="451.48471"
       rx="10.764234"
       ry="11.080829" />
    <ellipse
       style="fill:#000080;fill-opacity:1;stroke:#000000;stroke-opacity:1"
       id="path4195"
       cx="625.04669"
       cy="669.93134"
       rx="11.570831"
       ry="10.41309" />
    <ellipse
       style="fill:#000080;fill-opacity:1;stroke:#000000;stroke-opacity:1"
       id="path4197"
       cx="281.09274"
       cy="717.82037"
       rx="7.4795599"
       ry="6.8067951" />
  </g>
</svg>
