<?xml version="1.0" encoding="UTF-8" standalone="no"?>
<!-- Created with Inkscape (http://www.inkscape.org/) -->

<svg
   xmlns:dc="http://purl.org/dc/elements/1.1/"
   xmlns:cc="http://creativecommons.org/ns#"
   xmlns:rdf="http://www.w3.org/1999/02/22-rdf-syntax-ns#"
   xmlns:svg="http://www.w3.org/2000/svg"
   xmlns="http://www.w3.org/2000/svg"
   xmlns:sodipodi="http://sodipodi.sourceforge.net/DTD/sodipodi-0.dtd"
   xmlns:inkscape="http://www.inkscape.org/namespaces/inkscape"
   width="325.62292mm"
   height="202.96404mm"
   viewBox="0 0 1153.782 719.1639"
   id="svg2"
   version="1.1"
   inkscape:version="0.91 r13725"
   sodipodi:docname="map.svg">
  <defs
     id="defs4" />
  <sodipodi:namedview
     id="base"
     pagecolor="#ffffff"
     bordercolor="#666666"
     borderopacity="1.0"
     inkscape:pageopacity="0"
     inkscape:pageshadow="2"
     inkscape:zoom="0.35355339"
     inkscape:cx="774.54193"
     inkscape:cy="371.94616"
     inkscape:document-units="px"
     inkscape:current-layer="layer1"
     showgrid="false"
     units="mm"
     inkscape:window-width="1920"
     inkscape:window-height="1012"
     inkscape:window-x="0"
     inkscape:window-y="0"
     inkscape:window-maximized="1"
     fit-margin-left="15"
     fit-margin-top="0"
     fit-margin-right="0"
     fit-margin-bottom="0"
     inkscape:object-paths="false"
     inkscape:snap-midpoints="true"
     inkscape:snap-global="false" />
  <metadata
     id="metadata7">
    <rdf:RDF>
      <cc:Work
         rdf:about="">
        <dc:format>image/svg+xml</dc:format>
        <dc:type
           rdf:resource="http://purl.org/dc/dcmitype/StillImage" />
        <dc:title />
      </cc:Work>
    </rdf:RDF>
  </metadata>
  <g
     inkscape:label="Layer 1"
     inkscape:groupmode="layer"
     id="layer1"
     transform="translate(-168.58277,-92.922648)">
    <rect
       style="fill:#e9ddaf;fill-opacity:1;stroke:#000000;stroke-width:1.00131691;stroke-opacity:1"
       id="rect4181"
       width="1158.7319"
       height="721.85309"
       x="167.87631"
       y="89.548836"
       ry="0" />
    <path
       style="fill:#cdde87;fill-opacity:1;stroke:#000000;stroke-opacity:1"
       d="m 1158.1836,682.40737 c 4.4387,-1.63243 6.1028,-0.23787 10.5904,-1.54527 12.4276,-3.6206 25.5836,-2.28099 39.6077,-1.11263 57.8385,-5.13651 35.0614,3.286 63.5827,-4.04554 40.0747,-8.84137 39.4822,-16.52773 56.8216,-10.80425 l 0.3014,147.81372 -1161.19443,-0.93522 0.46226,-136.14425 c 31.05733,19.25471 28.47912,26.44362 50.77902,31.2987 28.13196,5.13163 28.32524,22.66064 59.39489,22.00305 35.75361,-0.75673 51.48607,-21.802 76.1149,-32.8635 22.31547,-10.0225 51.36843,-8.66234 76.35236,-14.67752 24.93488,-6.00337 45.79291,-19.39279 76.00352,-18.52867 29.73493,0.85051 57.62386,9.81047 86.89899,11.75489 29.65605,1.96972 36.49892,23.95968 52.86933,37.12631 16.78671,13.50146 42.92946,18.2034 59.85887,21.60135 12.44458,2.49779 22.04543,12.46159 32.70627,14.47585 10.67973,2.01782 22.75952,-0.24708 34.84638,-3.21772 7.97883,-1.96099 20.02862,-2.19097 29.27995,-5.21237 13.16355,-4.29909 23.50762,-11.66218 32.80399,-15.5165 6.57303,-2.72521 25.04019,0.63734 36.24315,-2.92244 23.80919,-7.56544 44.95133,-22.53356 61.2223,-25.94412 25.74047,-5.39546 55.45541,17.42391 80.54635,17.03954 32.4634,-0.49731 60.7633,-1.89003 88.8785,-9.55421 7.2293,-1.97069 11.7289,-9.12296 18.4204,-11.62846 5.9676,-2.23444 14.1695,0.20888 19.895,-2.10198"
       id="path4703"
       inkscape:connector-curvature="0"
       sodipodi:nodetypes="cscccccccssssssssssssssssc" />
    <path
       style="fill:#80b3ff;fill-opacity:1;stroke:#000000;stroke-opacity:1"
       d="m 389.78344,154.95483 c 20.1486,-4.27704 30.20393,3.34311 49.70903,-4.06028 9.37741,-3.55931 26.23977,4.40049 40.5503,4.91062 13.43695,0.47898 24.41274,-6.49766 31.14668,-9.21533 0.19329,-0.0799 0.38843,-0.16682 0.58203,-0.24804 1.80818,2.51549 3.73034,4.7261 5.8418,6.48828 34.45359,28.75431 62.01111,46.02354 101.10547,52.87304 19.00427,3.32965 48.0995,-4.53127 67.90039,2.02344 23.01143,7.61749 35.16252,32.91988 63.16797,45.01563 21.1173,9.12071 50.6062,2.08867 80.58594,3.56445 17.55474,0.86415 34.33898,11.68555 52.20117,11.68555 32.36417,0 72.99469,15.83902 92.57422,14.24804 39.17416,-3.18318 46.50576,-16.31137 55.38866,-28.40429 11.3397,-15.43773 20.5414,-26.93506 51.4102,-45.48633 10.6572,10.20154 15.3077,18.45496 16.4004,34.85937 1.6807,25.23177 9.135,60.54342 11.9043,70.82813 3.3001,12.25579 0.3903,30.24019 2.7968,44.75977 2.5004,15.08577 -3.6308,30.36136 -0.7324,46.29296 2.4893,13.68258 -0.3847,27.89853 0.6699,41.33008 0.8257,10.51641 5.5799,20.27636 7.0918,30.75977 5.5906,38.76507 9.9753,73.29386 7.4629,110.9707 -0.9682,14.51902 1.9912,36.14724 2.4688,52.61133 0.2745,9.45866 6.836,19.50245 9.2793,30.17187 2.648,11.5633 1.3309,23.8603 5.5273,36.94532 1.2838,4.00313 3.0005,7.71101 5.0469,11.18554 -1.9837,8.03272 -18.3395,18.07932 -30.4785,24.9375 -6.775,3.82768 -13.4539,11.74162 -19.3711,19.48438 -3.9847,5.21401 -14.0674,9.90632 -18.625,16.15234 -4.254,5.82992 -3.5279,15.83915 -6.3535,22.75 -2.1229,5.19229 -8.9468,4.61738 -12.2098,9.96919 l 21.5351,0.18246 c 4.1203,-7.23047 0.1808,-22.63531 4.618,-27.36649 6.199,-6.60976 18.7839,-7.35412 23.2363,-15.14258 5.7854,-10.12033 16.8759,-12.00764 22.5684,-16.46875 5.3091,-4.16059 14.8757,-6.98033 18.0508,-10.77344 2.3269,-2.77973 6.7222,-4.55647 9.0058,-5.17578 10.8721,10.92078 24.3277,16.53813 34.5957,26.66797 11.6321,11.47553 19.2106,21.20043 29.2897,29.16888 8.5195,6.73542 3.2743,15.90114 12.5135,21.40215 l 28.2875,-0.81198 c -1.3598,-8.34838 -13.2913,-16.09926 -20.9383,-23.23756 -6.0414,-5.63949 -10.6834,-15.64711 -18.2754,-22.58789 -10.8254,-9.89681 -24.8824,-16.87993 -33.8887,-24.46484 -23.2026,-19.54074 -36.5078,-44.42299 -36.5078,-72.63281 0,-12.29094 -1.9414,-25.86949 -6.9844,-40.5293 -3.5668,-10.36858 0.2453,-25.38336 1.7071,-36.15039 4.4489,-32.76989 -4.7252,-60.52528 -3.8184,-85.58789 0.3837,-10.60502 -1.7344,-21.4443 0.3164,-32.29883 2.4438,-12.93503 8.8577,-25.89164 5.5332,-38.49805 -3.2801,-12.43831 2.6597,-31.15625 3.6739,-43.94531 2.1675,-27.33945 3.267,-48.43681 -1.7383,-70.49023 -3.1289,-13.78585 -1.2492,-28.04536 -3.3789,-43.48242 -1.3879,-10.0602 -7.765,-20.621 -7.0371,-31.875 0.578,-8.93572 6.0367,-24.19643 8.0878,-33.66993 3.1973,-14.76813 3.1677,-23.41975 2.3653,-33.2832 l 0.3945,-1.02539 c 13.9136,-6.92893 37.8948,-27.91769 52.3691,-43.0332 17.5339,-18.31029 36.5125,-34.11996 56.0547,-48.005862 l -797.6768,3.154754 c 5.4877,3.819469 5.51733,3.848094 12.98723,5.330568 3.5039,0.695383 6.06516,4.10485 8.5735,6.3466 3.96769,3.54603 5.87879,5.94373 4.45411,9.74288 -0.82879,2.12151 -3.48177,2.62533 -5.71629,3.67072 -3.67778,1.72059 -7.84511,3.28513 -12.87193,3.95191 -7.84962,1.04121 -17.48127,1.48334 -27.96099,0.28668 -7.87126,-0.89881 -15.32954,4.11923 -27.6586,4.88268 -7.02897,0.43525 -12.74222,7.06581 -20.44029,7.50954 -8.60574,0.49604 -18.83246,0.89678 -28.52401,2.40826 -13.85651,2.16104 -23.61854,12.28099 -37.60286,15.30805 -13.33096,2.88563 -23.40774,8.60866 -38.25924,9.25747 -11.70656,0.51142 -23.34471,-2.06304 -34.52678,-0.33341 -10.104,1.56287 -28.21275,8.24177 -38.51551,8.07231 -12.82634,-0.21098 -20.29897,3.66791 -33.12026,5.47242 -4.3881,0.90716 -18.2874,4.84535 -18.38921,9.01092 l -0.51701,21.15394 c -0.0983,4.02063 10.13192,-3.47473 14.79271,-4.95756 6.92565,-2.2034 9.96793,-0.30988 16.60117,-1.865 19.80381,-4.48829 39.63538,-18.92217 59.03765,-20.13753 10.30744,-0.64566 22.07433,0.57951 31.69168,0.84597 6.15712,0.17059 11.82955,-2.9582 14.37461,2.30599 1.90269,7.54455 -2.84397,14.03502 -14.0157,33.34677 -4.39868,7.60367 -8.43652,18.75309 -6.37316,31.58492 1.74665,10.8622 6.10614,11.76504 15.47475,26.36043 6.17241,9.61602 14.35585,20.00126 19.29535,33.50131 2.88619,7.8882 12.75994,23.47193 13.08991,29.73314 0.73476,13.94234 3.44817,42.47447 -0.0657,57.07801 -3.76981,15.66712 -2.19087,27.62214 2.61111,41.98463 4.22685,12.64228 17.8519,12.12117 28.47501,16.07351 6.42832,2.39165 31.85009,3.39079 44.56742,3.72979 25.25821,0.67331 61.00037,-1.08011 72.6517,9.48138 7.00562,6.68085 17.87555,8.78009 25.55559,13.83732 5.81783,3.83098 18.88776,19.98514 24.44931,51.68639 1.70846,9.73836 1.96133,31.48826 12.13876,50.36207 8.11558,15.05016 20.49722,30.70613 25.74344,50.00877 4.44394,16.35078 1.87094,36.20345 6.94715,51.32813 3.89404,11.60238 -3.55015,25.12508 -6.6315,37.42551 -4.3967,17.55114 3.3353,34.8915 0.52955,48.57871 -5.25041,25.61293 -3.37387,33.19964 -3.03541,45.94411 l 40.99625,0.67563 c 3.39683,0.056 -4.28884,-8.52595 -5.06533,-36.66811 -0.39936,-14.47387 -8.29221,-32.29701 -7.34935,-52.75143 0.69861,-15.15558 6.68297,-31.13183 8.24148,-48.01863 1.08824,-11.79127 -1.35801,-23.79705 -3.44305,-37.24825 -2.91258,-18.78992 -7.24251,-35.73369 -20.6566,-52.31811 -10.61957,-13.12943 -14.21108,-30.93189 -22.003,-44.33508 -10.11646,-17.40169 -9.57929,-35.37512 -13.63945,-52.76541 -3.46144,-14.82587 -13.31818,-17.43161 -22.4808,-26.91489 -7.61002,-7.87633 -21.34714,-12.32431 -29.72978,-16.69835 -9.96438,-5.19939 -21.63858,-5.97281 -23.61466,-7.02417 -4.09526,-2.17887 -13.63909,-1.42623 -19.8758,-1.58689 -10.78461,-0.27781 -20.14552,-0.16777 -35.30341,-0.21032 -27.74424,-0.0779 -53.31193,1.8235 -62.7536,-13.60106 -5.40097,-8.8234 -1.15856,-25.49597 0.81454,-36.03351 3.05512,-16.31617 -2.55805,-24.81234 0.79937,-40.08792 2.97482,-13.53485 0.27748,-13.44535 -4.11792,-24.09315 -5.97374,-14.47134 -7.19645,-14.55613 -11.75654,-28.03685 -3.44321,-10.17898 -15.34945,-14.82936 -21.89316,-25.9482 -7.97259,-13.54671 -9.28319,-19.51898 -7.56483,-37.0924 0.93115,-9.52274 5.23665,-18.72024 9.38373,-25.12276 4.80328,-7.4156 8.63516,-13.48299 11.39897,-19.48749 6.01482,-8.11023 8.83756,-15.32032 16.76143,-20.48142 7.50246,-4.88662 9.50561,-1.84813 24.82173,-3.67022 10.13105,-6.01531 21.21186,-8.23144 21.21186,-8.23144 z"
       id="path4689"
       inkscape:connector-curvature="0"
       sodipodi:nodetypes="cssccsssssssscssssssscsscssssccsssccssccssssssssscssssccsccsscsssssssssscssscsscssssssssscssssssscssssssssssssssssssssscscc"
       transform="translate(0,2.0165354e-4)" />
    <path
       style="fill:#d38d5f;fill-opacity:1;stroke:#000000;stroke-width:0.69265294;stroke-opacity:1"
       d="m 499.76026,473.61042 c -2.09946,1.25128 -5.5327,1.75158 -9.70401,0.52502 -4.88644,-1.43683 -10.08878,-5.07213 -14.39141,-6.57365 -9.81896,-3.42659 -15.65412,-2.84466 -25.48474,-5.82845 -7.37538,-2.23857 -19.77413,-2.38495 -28.40907,-2.85368 -17.41813,-0.94551 -10.50621,0.0245 -29.05991,-0.7511 -4.02602,-0.16829 -14.83457,-0.88442 -21.62028,-2.0192 -4.44171,-0.74278 -5.7737,-0.42717 -14.10417,-2.07178 -19.06223,-3.7633 -20.61501,-6.22298 -23.75849,-8.77189 -7.33081,-5.94426 -9.62931,-5.87726 -12.29688,-12.68987 -0.80164,-2.04729 -2.88462,-10.66852 -1.02572,-20.77001 1.67849,-9.12117 7.27251,-19.39076 7.43524,-28.15814 0.17337,-9.34055 1.40506,-18.80794 0.73292,-27.07078 -0.66912,-8.22579 -1.16666,-20.28846 -3.36366,-29.51272 -1.39978,-5.87707 -5.85449,-10.55175 -7.01392,-15.34352 -0.55383,-2.28891 -5.63489,-9.71666 -9.55607,-17.67637 -2.34613,-4.76247 -7.35233,-9.90634 -11.49935,-16.0682 -2.69664,-4.00682 -4.48181,-8.99225 -6.80973,-12.70946 -2.46812,-3.94107 -7.04429,-10.27344 -9.51898,-17.26408 -1.40776,-3.9767 -3.0723,-10.06869 -2.37818,-15.09559 0.45742,-3.31269 2.27816,-8.83555 4.43023,-12.8724 0.79089,-1.48354 4.65268,-7.53031 6.66801,-11.86188 0.34972,-0.75165 1.46186,-7.73973 4.26322,-10.01992 1.80361,-1.46805 4.554,0.008 7.59345,0.29475 l 3.42023,-9.52322 c -2.73844,-0.21946 -4.63599,-3.55897 -7.21716,-3.3158 -8.39173,0.7906 -14.50699,8.46655 -14.62247,9.34099 -0.33668,2.5495 -4.31936,11.67194 -5.74578,15.54173 -2.63086,7.13744 -7.05023,16.809 -7.61326,18.37154 -0.84155,2.33547 -0.22077,9.38461 -0.5534,13.44285 -0.42647,5.20319 3.50363,9.52158 4.62772,13.58333 2.4111,8.71224 8.65166,17.34262 13.00605,25.32058 3.71247,6.80184 7.9814,13.46066 10.11196,17.2551 4.91996,8.76227 9.07878,17.29863 10.31845,20.78106 3.54229,9.95088 7.35413,11.26793 9.38968,19.08454 1.27545,4.89782 0.32422,7.7019 2.38208,17.83294 0.82935,4.08293 -0.891,8.08344 -0.92464,10.93789 -0.0742,6.2977 -0.76343,9.67957 -2.68378,14.66924 -4.11816,10.70028 -3.77163,20.64111 -5.53788,29.51541 -1.87919,9.44185 -0.90389,18.8259 0.73143,22.70648 1.73828,4.12492 3.39867,9.94726 11.46933,16.49543 1.59649,1.29533 10.41566,4.79718 19.2888,9.34959 6.76683,3.47176 16.06505,7.05451 19.71513,11.23555 7.7232,8.84665 -1.15754,18.17385 -1.97711,22.24127 -1.3436,6.66814 -4.65056,13.98329 -6.29607,21.78177 -2.18133,10.33786 1.22242,14.77507 -1.26194,26.43024 -1.23002,5.77055 -0.60607,13.39071 -2.42596,19.2321 -2.01742,6.4754 -5.69752,14.87515 -8.2235,22.39146 -3.01098,8.95946 -1.33487,16.62665 -4.31467,28.56092 -1.94264,7.78038 -4.28255,13.50333 -5.15665,21.20891 -0.95982,8.46139 -4.62972,16.98292 -5.53428,25.66072 -0.53869,5.16786 -3.66395,11.97888 -7.16396,17.72888 -5.9439,9.765 -9.55107,12.50175 -18.32756,18.71135 -1.90293,1.34637 -5.48046,6.26139 -10.26868,9.24925 -5.88855,3.67448 -10.96767,7.58721 -11.2247,10.38612 -1.32155,6.25441 2.75253,4.07834 6.11397,2.37654 1.67213,-2.1908 2.151,2.38167 6.45383,-0.82093 4.83053,-3.59536 16.87444,-10.36701 23.00634,-15.29621 5.57732,-4.48341 18.10714,-20.25581 19.48435,-30.26005 1.37859,-10.01418 6.22527,-23.49298 7.06185,-29.94423 1.59213,-12.2777 6.19586,-23.865 6.72603,-41.25106 0.34468,-11.30347 4.48046,-14.59497 9.47247,-26.03768 3.27456,-7.50597 5.15973,-8.32288 7.13796,-17.47967 2.04097,-9.44718 0.4235,-18.08787 0.52849,-21.84124 0.61903,-22.12943 -0.82085,-7.72218 1.56728,-28.79544 1.40433,-12.39207 5.79415,-18.24245 8.24519,-23.73364 2.02959,-4.54697 -1.00723,-5.52504 10.09211,-7.64118 9.75216,-4.52225 8.6408,-2.54454 16.80009,-4.05332 8.13703,-1.27082 15.00935,-1.81499 22.19369,-0.9995 6.87818,0.78074 22.91707,3.2574 28.93237,5.15697 13.39758,4.23082 18.4285,4.77784 26.57715,6.7201 3.88995,0.92718 10.71653,3.75836 15.52382,4.04906 8.26786,0.49994 16.97305,0.19884 18.64763,-1.28183 z"
       id="path3583" />
    <path
       style="fill:#d38d5f;fill-opacity:1;stroke:#000000;stroke-width:0.69265294;stroke-opacity:1"
       d="m 539.1666,479.38035 c 7.32746,-0.92405 12.75928,-1.0509 12.83035,-0.14567 0.44879,5.71619 2.14628,13.90105 2.21786,14.77194 0.90539,11.01509 3.44629,18.85168 8.53028,36.41685 2.69311,9.30468 9.3074,21.23288 14.97717,33.22198 4.66322,9.86068 8.38021,19.76257 11.40028,28.2799 6.16666,17.39146 14.05324,33.63182 18.8188,49.55982 3.43431,11.47854 4.792,24.17744 8.18462,29.21817 1.88238,2.79683 7.31632,7.70916 14.83363,14.47968 5.57726,5.0232 11.23388,11.3539 23.05858,17.10345 12.41872,6.03837 30.99294,1.38693 51.69374,6.92653 10.62129,2.84227 20.71312,6.40825 34.15661,9.86526 8.81245,2.26615 22.54634,8.05698 32.80612,10.40937 15.05525,3.45187 26.75139,2.39782 45.14904,-2.33594 5.77442,-1.48578 17.6015,-8.28541 23.84558,-9.36907 11.43389,-1.9844 26.42165,-1.69498 37.16836,-5.82194 17.58147,-6.75165 32.66423,-18.71027 52.67578,-20.8618 24.58729,-2.64353 47.46564,3.85758 70.6589,6.48347 16.5334,1.87183 33.8445,-1.67713 48.1243,-1.84659 13.7509,-0.16317 23.7102,-1.45902 33.8921,-3.5516 5.1201,-1.05227 15.527,-1.58686 24.5852,-3.8485 5.3945,-1.34692 10.9439,-1.72329 13.9803,-4.76934 2.5013,-2.50926 6.0834,-3.68874 5.6119,-10.53348 -0.166,-2.40844 -0.4536,-5.43734 -4.6787,-7.20457 -2.2081,-0.92352 -6.1891,-4.1942 -9.8419,-5.60813 -3.4505,-1.33564 -6.474,-2.56662 -9.8684,-4.08297 -4.074,-1.81992 -6.7755,-3.32428 -12.6003,-5.52954 -2.0627,-0.78094 -9.1641,-4.36393 -12.0311,-5.31251 -3.1099,-1.02899 -8.5519,-2.06556 -12.9574,-3.93891 -6.3617,-2.70518 -13.9811,-4.32107 -19.492,-7.06935 -5.2304,-2.6084 -8.3288,-4.13282 -14.3535,-6.13883 -13.9516,-9.20501 -11.9471,-7.25681 -22.6702,-13.05915 -3.0686,-2.13179 -11.24168,-6.40239 -13.29343,-8.0505 -5.21093,-4.18577 -5.00253,-4.57302 -8.85853,-9.07645 -1.79769,-2.09946 -4.10397,-5.81387 -7.20243,-9.00636 -2.52993,-2.60672 -5.6614,-4.19385 -7.78176,-6.50158 -1.96834,-2.14223 -2.92616,-4.99839 -5.20988,-7.54268 -2.86346,-3.19022 -5.84955,-9.80921 -8.65755,-13.06535 -3.56565,-7.01446 -8.26188,-10.74175 -12.74681,-15.69161 -4.78508,-5.63536 -4.95286,-7.60307 -9.5922,-12.98743 -3.98456,-4.62442 -8.64042,-8.95458 -12.52731,-13.46134 -3.14331,-3.64454 -8.28321,-7.66379 -11.34162,-11.11266 -4.48979,-5.06298 -10.76372,-7.25844 -14.67576,-11.89479 -8.64923,-10.25066 -17.9383,-15.53553 -22.83445,-23.13208 -3.65143,-5.66533 -11.22832,-10.86404 -15.09701,-14.97878 -2.61622,-2.78261 -1.6412,-6.99702 -2.29084,-8.85252 -2.42843,-4.62276 -1.84688,0.69874 -4.0199,2.39704 -3.28668,2.56867 -5.44001,4.62772 -3.91531,9.77357 -0.0897,0.64635 3.33276,5.48899 8.5763,9.94604 4.38244,3.72517 9.5228,9.81543 16.18559,15.75495 5.07254,4.52189 9.55245,9.96567 15.43443,16.75792 2.89553,3.34363 7.62549,5.56489 11.13471,9.55481 2.55537,2.90557 5.73482,8.27521 8.71726,10.40111 7.18221,5.11949 8.54396,7.44861 14.73772,14.31365 4.20856,4.66469 10.31685,12.67829 14.96391,17.44184 3.86797,3.96496 5.5616,8.61421 7.485,12.33245 4.28819,8.28982 7.92809,15.49994 16.6605,22.67181 4.54308,3.7312 12.88217,15.51615 17.39554,19.18812 10.47003,8.51815 17.42613,12.39022 27.57643,20.22847 7.9864,6.16719 16.0515,8.60541 24.6957,12.17776 9.0073,3.72245 20.767,5.59628 28.8554,7.55088 10.3825,2.509 14.5742,4.16819 21.9313,7.03857 6.2375,2.43357 18.8276,6.95629 22.7579,9.99303 7.2585,5.60816 13.354,6.09405 13.4902,6.97101 0.5015,3.22733 -6.4313,3.9214 -13.1365,3.82147 -6.9167,-0.10316 -18.7192,2.42789 -23.1774,2.92249 -10.0111,1.11074 -19.4597,3.6801 -36.3599,3.77814 -10.6753,0.062 -26.6412,3.68688 -40.8111,2.50107 -9.30342,-0.77849 -24.3994,-4.25289 -35.12244,-5.21854 -16.12621,-1.45226 -29.89481,-3.75466 -42.57443,-2.32987 -15.37089,1.72728 -31.68986,9.07952 -45.79716,15.21687 -6.54715,2.84824 -26.40716,7.47393 -33.40148,8.54231 -11.66009,1.78105 -19.6169,4.36286 -31.32377,8.24287 -7.7089,2.55493 -16.70067,7.07972 -25.25655,7.73123 -7.30389,0.5562 -14.20433,-2.5691 -20.65909,-2.73988 -14.52052,-0.3842 -22.58703,-4.69348 -35.96216,-7.47276 -13.06666,-2.71523 -16.74329,-6.64025 -29.39731,-9.95385 -5.75408,-1.50672 -28.08453,-1.31985 -41.28691,-4.24025 -10.43919,-2.30917 -13.39553,-7.57956 -17.04372,-10.29979 -5.80734,-4.33017 -8.86168,-6.00268 -12.61103,-10.41052 -5.1149,-6.01321 -10.73549,-12.55764 -10.98018,-13.13784 -2.13403,-5.0599 -2.90222,-12.19651 -5.09099,-19.47552 -1.83474,-6.10161 -3.97188,-13.1805 -7.70922,-22.39112 -2.17134,-5.35122 -9.12373,-18.92368 -11.43031,-24.52836 -4.78909,-11.63685 -8.73887,-23.43669 -13.91346,-35.14473 -5.28805,-11.96475 -9.25929,-20.1928 -13.29185,-31.69388 -1.3319,-3.79866 -4.14373,-9.01515 -5.67418,-14.39808 -2.24896,-7.91002 -3.19918,-16.17944 -4.65829,-20.83756 -0.39999,-1.27695 -3.45405,-16.11427 -3.45405,-16.11427 1.09089,-0.97527 7.44791,-1.21252 14.57511,0.33329 6.31875,1.37047 15.14619,1.69556 24.19018,3.27766 3.65306,0.63905 8.53002,-0.0673 12.31438,0.53093 9.77805,1.54568 19.96811,2.92394 31.3591,4.60721 7.87269,1.16337 16.66982,2.7063 24.86521,3.59368 11.21767,1.21462 24.59566,4.3648 37.36388,5.38417 8.91928,0.71209 17.65562,-0.30337 24.6644,-0.83037 3.47915,-0.26161 11.50773,-0.79195 21.15737,-1.09586 6.81909,-0.21477 14.76467,-0.31646 21.09008,-0.13034 8.1483,0.23976 15.62567,-0.94525 21.21518,-4.45841 6.06332,-3.81097 13.24852,-6.59921 21.52743,-10.8588 17.63297,-9.07233 29.59399,-15.29102 40.69984,-27.01843 4.71972,-4.98388 17.53943,-15.13048 21.54617,-21.08871 5.33057,-7.92683 5.78985,-12.81998 18.30811,-28.34681 4.75024,-5.89189 12.94238,-18.9627 20.71584,-25.93032 12.29107,-11.01689 14.21753,-21.60804 27.04585,-30.9137 4.07085,-2.95299 14.29349,-13.11208 17.53925,-16.53255 9.61964,-10.13746 10.37952,-13.32551 19.75869,-19.50679 9.17388,-6.04615 18.05987,-13.08355 27.74991,-19.13083 8.283,-5.1693 17.2932,-10.53975 27.6727,-15.05514 6.9258,-3.01288 20.706,-8.88079 26.0037,-12.18135 5.1714,-3.22202 11.6316,-3.17119 16.8879,-3.76461 5.3055,-0.59897 8.4553,-0.50396 12.2081,-1.017 1.6659,-0.22775 4.7212,1.63708 9.5198,1.54168 l -1.711,-14.81245 c -3.9796,0.5546 -5.7764,3.35182 -9.271,3.88426 -8.5969,1.30969 -16.7158,0.22274 -18.381,0.76971 -4.3434,1.42676 -9.041,1.24085 -14.1783,3.07003 -9.3786,3.33924 -11.9904,9.63039 -24.0593,14.60561 -8.4149,3.46893 -18.8156,9.72331 -27.6855,13.49576 -6.14573,2.61387 -14.51539,9.29329 -19.95841,13.1262 -5.11037,3.5988 -7.86141,3.73063 -14.95687,11.16625 -7.22993,7.57652 -12.15413,14.8883 -19.56994,22.38597 -9.49872,9.60357 -18.1893,15.06475 -24.88724,22.53012 -10.70973,11.93684 -6.88387,9.65171 -16.63557,20.95534 -6.6105,7.66252 -11.82676,9.63165 -17.15745,17.58802 -4.13871,6.17727 -9.2071,11.42834 -12.91842,18.37032 -4.12017,7.70674 -10.35638,12.36461 -15.37672,19.02252 -6.67809,8.85637 -15.73419,16.06029 -22.91152,23.7571 -8.11744,8.70496 -16.8844,11.84458 -25.26577,18.23 -4.08989,3.11593 -11.02787,5.15652 -15.14869,7.6285 -6.87029,4.1213 -13.8083,7.16638 -21.49974,8.34519 -7.01925,1.07579 -14.71938,1.78381 -21.22158,1.94798 -12.04565,0.30416 -22.12143,-0.17907 -26.15936,0.16766 -10.97448,0.94234 -25.03649,0.9737 -36.42822,-1.29134 -9.5261,-1.8941 -18.54843,-3.9632 -28.22295,-4.54723 -11.14426,-0.67275 -21.62539,-1.56668 -31.96509,-3.65985 -12.61822,-2.55441 -21.60842,-1.57782 -31.61836,-3.44952 -7.75491,-1.45004 -13.1084,-1.87107 -18.559,-3.14828 -7.06321,-1.65509 -11.25811,-1.78123 -15.9617,-2.68199 -5.91134,-1.13204 -11.45862,-2.83897 -11.31686,-3.01096 0.5263,-0.63856 4.90273,-3.30359 7.86099,-6.0168 2.33051,-2.13744 3.36051,-4.42488 3.81398,-4.95229 4.72006,-5.48966 10.21978,-11.03071 11.59197,-13.82788 5.26086,-9.96206 18.51483,-44.06404 18.51483,-44.06404 0,0 6.20916,-13.8755 7.16059,-19.13636 2.79833,-7.7234 8.70725,-15.87654 10.27431,-19.40243 1.8469,-5.26087 12.07569,-37.71415 12.07569,-42.75114 0,-4.25347 1.54012,-9.72866 5.90552,-15.54919 3.91574,-5.7245 24.77312,-19.85887 27.86555,-24.27994 3.91555,-4.72139 12.04757,-15.71377 15.50257,-25.82701 0.35117,-1.02793 3.66673,-20.15231 6.8721,-17.07281 1.97995,1.90221 5.33649,4.56308 7.88659,8.1447 2.12551,2.98529 7.55565,6.33767 10.44902,10.02068 3.90507,4.97082 13.89047,12.21277 20.69233,16.03018 7.3715,4.13711 13.27673,6.04159 20.94804,9.69244 5.06145,2.4088 15.24625,1.48162 19.86452,2.17 3.78461,0.56411 7.03579,4.03875 8.73588,6.72436 2.68475,4.24108 4.57878,5.64482 7.1292,10.17277 3.88173,6.89154 7.00059,9.60619 10.72307,16.86231 2.56229,4.9946 5.12169,10.53424 6.27271,16.17031 1.03834,5.08438 4.02597,12.54532 6.11843,17.45727 1.83129,4.29884 2.752,12.10446 4.79594,16.32195 3.19504,6.59264 3.52412,14.10406 6.88901,19.68765 3.37195,5.59528 5.62893,12.48544 9.18249,17.27152 1.94312,2.61706 2.70289,7.23669 3.6899,10.16553 1.94056,5.75828 2.97122,11.07383 3.74101,16.51103 0.52219,3.68831 0.8289,7.90977 1.58663,10.52098 0.95857,3.3033 1.91189,5.99082 2.79736,8.15894 2.50613,6.13639 3.84378,9.36214 3.84378,9.36214 0,0 1.95529,-3.68135 4.41309,-6.54167 0.82421,-0.95919 4.24256,-2.58362 4.224,-4.87775 -0.04,-4.9412 -4.16028,-8.5401 -7.14799,-17.84739 -2.5674,-7.99796 -3.15611,-17.01902 -4.86193,-24.19167 -1.54842,-6.51083 -6.68917,-14.20588 -10.1402,-22.02267 -5.04248,-11.42154 -8.74741,-23.10297 -11.11547,-31.72993 -1.70312,-6.20453 -5.47338,-12.54596 -7.7044,-18.50247 -3.92049,-10.46721 -6.21976,-19.22372 -6.60714,-20.22444 -0.91014,-2.35121 -3.67023,-8.40339 -7.40062,-12.41382 -4.96421,-5.33687 -10.92576,-11.10866 -12.21041,-14.9626 -1.41421,-4.82322 -5.16721,-8.24717 -9.16721,-10.49717 -9.94823,-3.03553 -16.45118,1.55516 -20.87059,-0.21261 -4.06586,-1.06066 -14.88345,-7.33221 -14.88345,-7.33221 l -19.45627,-14.38211 -16.53882,-14.42176 -7.91536,-9.10598 -19.34198,4.42847 c 0,0 0.0386,7.96672 -4.48755,17.55837 -4.46502,9.46201 -10.78755,18.70761 -14.68573,24.03438 -3.30504,5.22053 -22.65024,17.99104 -27.14485,23.88976 -3.80574,4.58926 -6.76664,13.69996 -7.43824,18.73695 -0.22387,4.58926 -10.13611,35.28738 -12.65183,41.99596 -3.80573,9.62626 -5.97943,12.66769 -9.20465,18.60016 -1.45678,3.97692 -6.51993,18.72293 -6.51993,18.72293 0,0 -11.70809,35.95895 -16.96896,42.22721 -2.47066,2.77603 -7.82537,10.70679 -11.89143,14.71366 -0.37496,0.36956 -9.92358,9.39699 -15.07283,15.44644 -0.80444,0.94507 0.93961,0.53278 -12.00048,3.1006 -1.25532,0.24911 -4.52204,1.67135 -9.56664,1.10688 z"
       id="path3581"
       inkscape:connector-curvature="0"
       sodipodi:nodetypes="csssssssssssssssssssssccssscssccscsssccsssssscscssscsssssssssssccssssssssssssssscssssssscssssssssssssssssscsscssccccssscssssssssssssssssssscssccccsccssssssssssssssssssscsssssssssccccccccsccccccccsscc" />
    <path
       style="fill:#c87137;fill-opacity:1;stroke:#000000;stroke-width:0.69265294;stroke-opacity:1"
       d="m 525.43098,466.31132 c -1.79697,-0.20108 -3.79825,-1.72546 -6.02654,-1.94958 -2.54887,-0.25638 -5.19034,0.8024 -7.49069,1.4202 -2.31407,0.62147 -3.75389,1.84413 -5.7635,3.48111 -1.4526,1.18326 -3.20289,2.58299 -5.79624,4.12862 l 12.89303,9.81824 c 2.25841,-1.99688 2.67527,-2.30362 4.17079,-3.9393 0.87936,-0.96178 2.96895,-1.76674 4.43639,-2.00503 2.37045,-0.38493 6.17244,-1.39568 9.1941,-0.75181 3.35712,0.71535 5.90842,3.10585 7.80578,2.86658 z"
       id="path3577" />
    <path
       style="fill:#d38d5f;fill-opacity:1;stroke:#000000;stroke-width:0.69265294;stroke-opacity:1"
       d="m 319.81129,200.94211 c 0.79635,0.23107 1.22531,-0.37585 2.31596,-0.43663 1.1852,-0.066 2.73427,0.34869 5.06042,0.68164 2.99616,0.42886 5.18434,2.15442 8.73741,2.64231 3.26061,0.44773 6.35935,1.51857 9.55667,1.65856 5.20937,0.22808 10.44496,-2.93709 17.01705,-2.08475 5.49644,0.71284 11.77332,2.51397 18.08729,3.16552 8.95401,0.92398 17.31206,5.13618 27.55636,5.92444 6.71509,0.5167 10.7588,3.34177 17.89345,3.77688 5.67029,0.34581 11.68725,-0.90732 17.57296,-0.62305 7.04671,0.34034 16.63966,4.49612 23.38649,7.18693 5.23305,2.08706 9.10338,4.46052 13.65692,6.40183 9.51764,4.05766 14.51814,4.02733 24.17643,3.96958 9.86955,-0.059 20.43125,5.05871 30.20316,4.65241 8.59568,-0.35738 18.59461,1.23229 26.89687,0.54251 8.54592,-0.71001 19.31338,1.08073 27.30206,0.0527 10.68418,-1.37496 20.17506,-4.03623 28.61809,-7.97494 7.68757,-3.58628 9.37458,-6.94563 15.17009,-10.32213 2.3685,-1.3799 3.92727,-3.8732 6.15966,-4.24513 1.9449,-0.32403 3.44932,-1.30177 5.21218,-1.80288 2.65302,-0.75414 5.49093,-1.02943 8.10453,-1.16019 4.15472,-0.20789 8.59831,1.27472 11.8611,1.58865 6.85441,0.65952 11.29203,2.41105 11.42796,2.19947 0.13187,-0.20523 -0.90893,-4.04786 -6.17157,-6.80662 -1.41412,-0.74129 -4.52833,-0.81688 -6.33577,-1.42606 -2.43227,-0.81979 -5.87586,-0.58662 -8.87509,-1.08072 -5.07497,-0.83606 -11.12121,0.32505 -17.48841,0.72832 -3.23555,0.20493 -7.47373,4.39772 -10.70947,6.35084 -3.5801,2.16098 -7.91102,6.10258 -11.96474,8.78303 -7.28829,4.81924 -14.31096,6.89443 -24.23762,7.72871 -8.96306,0.7533 -18.75675,-1.07953 -28.45585,-0.667 -7.98397,0.33959 -16.63949,-2.50063 -24.94033,-2.37728 -9.89291,0.14702 -21.27626,-1.86054 -31.328,-2.03493 -3.91873,-0.068 -12.87599,0.29274 -17.01359,-1.2701 -7.44751,-2.81305 -11.52463,-6.07465 -19.36288,-9.06616 -8.04913,-3.07199 -15.87622,-6.39426 -24.17539,-6.76122 -5.12017,-0.2264 -10.91444,-0.0744 -15.86191,-0.3244 -6.3641,-0.32155 -11.149,-2.82936 -17.15367,-3.16175 -10.76121,-0.59569 -19.98855,-4.0869 -29.22062,-4.64528 -7.74963,-0.46871 -14.42671,-3.8134 -20.77789,-4.20598 -4.08744,-0.25265 -11.80302,2.51291 -15.19133,2.28278 -4.23487,-0.28763 -8.00848,-1.01416 -11.00403,-2.36829 -2.7934,-1.26275 -3.98706,-3.01691 -5.49694,-3.9045 -1.39644,-0.8209 -3.37292,-1.6628 -4.56639,-1.8258 z"
       id="path3575" />
    <path
       style="fill:#c87137;fill-opacity:1;stroke:#000000;stroke-width:0.69265294;stroke-opacity:1"
       d="m 325.14355,190.68343 c -1.40446,-0.19182 -0.51212,-0.0335 -2.0509,-0.53544 -1.30806,-0.42668 -2.03058,-1.25073 -3.63056,-1.87197 -1.88952,-0.73368 -3.09987,-1.23538 -5.53385,-1.73291 -1.62815,-0.33282 -4.20142,0.0999 -5.93039,0.79597 -1.49174,0.60057 -1.97382,1.76195 -3.48999,1.64044 l -3.38708,9.55637 c 1.10562,0.10422 1.78487,-0.9638 2.99436,-1.28806 2.01548,-0.54036 4.36188,-0.55367 6.16912,-0.18056 1.78488,0.3685 3.90457,0.66134 5.24228,1.42838 2.36321,1.35507 2.49593,1.96368 3.9312,2.38017 z"
       id="path3571" />
    <path
       style="fill:#c87137;fill-opacity:1;stroke:#000000;stroke-width:0.69265294;stroke-opacity:1"
       d="m 1145.4376,240.7415 c -4.5308,-0.8469 -7.2679,-4.84154 -8.9233,-5.48835 -4.6617,-1.82154 -8.4603,-3.73229 -16.2204,-2.83308 -3.6563,0.42365 -10.2711,2.50229 -14.5346,5.31609 -3.1616,2.08663 -4.0227,5.08136 -6.7211,5.45743 l 1.6171,14.84359 c 3.1038,-0.0617 5.7383,-3.64493 9.6032,-5.03569 4.7106,-1.695 10.0493,-3.79909 14.594,-3.59845 4.0349,0.17816 8.759,2.03768 11.9794,3.11336 1.5066,0.50323 3.5399,2.83267 7.9521,3.66793 z"
       id="path3569" />
    <path
       style="fill:#d38d5f;fill-opacity:1;stroke:#000000;stroke-width:0.69265294;stroke-opacity:1"
       d="m 1145.2922,256.29479 c 1.78,0.33696 3.6629,-1.63477 6.6627,-1.8203 3.0417,-0.18813 6.0594,-3.46902 7.8921,-6.006 2.6465,-3.66363 4.3998,-7.66638 6.3795,-13.09138 1.8457,-5.05765 4.927,-9.63694 6.0423,-14.85384 2.6956,-12.6081 4.3675,-20.83827 4.2572,-21.16919 -10e-5,-1.67902 -10.4745,1.55588 -10.0268,-1.57827 0,-1.56711 -6.2604,23.53055 -5.3299,20.69241 1.6283,-4.96653 -3.1921,11.37804 -7.508,18.02331 -2.302,3.54453 -4.9867,4.83602 -7.6492,4.33831 z"
       id="rect4198" />
    <ellipse
       style="fill:#ff0000;fill-opacity:1;stroke:#000000;stroke-opacity:1"
       id="path4183"
       ry="11.397426"
       rx="10.922532"
       cy="469.95932"
       cx="552.20435" />
    <ellipse
       style="fill:#000080;fill-opacity:1;stroke:#000000;stroke-opacity:1"
       id="path4188"
       cx="1128.3176"
       cy="678.47412"
       rx="10.17218"
       ry="10.287411" />
    <ellipse
       style="fill:#000080;fill-opacity:1;stroke:#000000;stroke-opacity:1"
       id="path4190"
       cx="290.59006"
       cy="190.63298"
       rx="10.073996"
       ry="9.8501291" />
    <ellipse
       style="fill:#ff0000;fill-opacity:1;stroke:#000000;stroke-opacity:1"
       id="path4192"
       cx="1172.8481"
       cy="188.61818"
       rx="12.536528"
       ry="12.312661" />
    <path
       style="fill:#ff0000;fill-opacity:1;stroke:#000000;stroke-opacity:1"
       id="path4196"
       sodipodi:type="arc"
       sodipodi:cx="680.54315"
       sodipodi:cy="219.02017"
       sodipodi:rx="13.65586"
       sodipodi:ry="13.119259"
       sodipodi:start="0"
       sodipodi:end="6.2795252"
       d="m 694.19901,219.02017 a 13.65586,13.119259 0 0 1 -13.64336,13.11926 13.65586,13.119259 0 0 1 -13.66834,-13.09525 13.65586,13.119259 0 0 1 13.61836,-13.14322 13.65586,13.119259 0 0 1 13.69325,13.07119"
       sodipodi:open="true" />
    <ellipse
       style="fill:#ffff00;fill-opacity:1;stroke:#000000;stroke-opacity:1"
       id="path4193"
       cx="849.02045"
       cy="450.23471"
       rx="10.764234"
       ry="11.544171" />
    <ellipse
       style="fill:#000080;fill-opacity:1;stroke:#000000;stroke-opacity:1"
       id="path4195"
       cx="625.04669"
       cy="669.93134"
       rx="11.570831"
       ry="10.41309" />
    <ellipse
       style="fill:#000080;fill-opacity:1;stroke:#000000;stroke-opacity:1"
       id="path4197"
       cx="281.09274"
       cy="717.82037"
       rx="7.4795599"
       ry="6.8067951" />
  </g>
</svg>
