<?xml version="1.0" encoding="UTF-8" standalone="no"?>
<!-- Created with Inkscape (http://www.inkscape.org/) -->

<svg
   xmlns:dc="http://purl.org/dc/elements/1.1/"
   xmlns:cc="http://creativecommons.org/ns#"
   xmlns:rdf="http://www.w3.org/1999/02/22-rdf-syntax-ns#"
   xmlns:svg="http://www.w3.org/2000/svg"
   xmlns="http://www.w3.org/2000/svg"
   xmlns:sodipodi="http://sodipodi.sourceforge.net/DTD/sodipodi-0.dtd"
   xmlns:inkscape="http://www.inkscape.org/namespaces/inkscape"
   width="325.62292mm"
   height="202.96404mm"
   viewBox="0 0 1153.782 719.1639"
   id="svg2"
   version="1.1"
   inkscape:version="0.91 r13725"
   sodipodi:docname="map.svg">
  <defs
     id="defs4" />
  <sodipodi:namedview
     id="base"
     pagecolor="#ffffff"
     bordercolor="#666666"
     borderopacity="1.0"
     inkscape:pageopacity="0"
     inkscape:pageshadow="2"
     inkscape:zoom="0.55836834"
     inkscape:cx="443.32683"
     inkscape:cy="371.21143"
     inkscape:document-units="px"
     inkscape:current-layer="layer1"
     showgrid="false"
     units="mm"
     inkscape:window-width="1920"
     inkscape:window-height="1012"
     inkscape:window-x="0"
     inkscape:window-y="0"
     inkscape:window-maximized="1"
     fit-margin-left="15"
     fit-margin-top="0"
     fit-margin-right="0"
     fit-margin-bottom="0" />
  <metadata
     id="metadata7">
    <rdf:RDF>
      <cc:Work
         rdf:about="">
        <dc:format>image/svg+xml</dc:format>
        <dc:type
           rdf:resource="http://purl.org/dc/dcmitype/StillImage" />
        <dc:title></dc:title>
      </cc:Work>
    </rdf:RDF>
  </metadata>
  <g
     inkscape:label="Layer 1"
     inkscape:groupmode="layer"
     id="layer1"
     transform="translate(-168.58277,-92.922648)">
    <rect
       style="fill:#8dd35f;fill-opacity:1;stroke:#000000;stroke-opacity:1"
       id="rect4181"
       width="1158.7333"
       height="719.95483"
       x="168.58276"
       y="93.922623" />
    <path
       style="fill:#008000;fill-opacity:1;stroke:#000000;stroke-opacity:1"
       d="m 1158.1836,682.40737 c 4.4387,-1.63243 6.1028,-0.23787 10.5904,-1.54527 12.4276,-3.6206 25.5836,-2.28099 39.6077,-1.11263 57.8385,-5.13651 35.0614,3.286 63.5827,-4.04554 40.0747,-8.84137 39.4822,-16.52773 56.8216,-10.80425 l 0.3014,147.81372 -1159.07311,-0.22811 -1.65906,-136.85136 c 31.05733,19.25471 28.47912,26.44362 50.77902,31.2987 28.13196,5.13163 28.32524,22.66064 59.39489,22.00305 35.75361,-0.75673 51.48607,-21.802 76.1149,-32.8635 22.31547,-10.0225 51.36843,-8.66234 76.35236,-14.67752 24.93488,-6.00337 45.79291,-19.39279 76.00352,-18.52867 29.73493,0.85051 57.62386,9.81047 86.89899,11.75489 29.65605,1.96972 36.49892,23.95968 52.86933,37.12631 16.78671,13.50146 42.92946,18.2034 59.85887,21.60135 12.44458,2.49779 22.04543,12.46159 32.70627,14.47585 10.67973,2.01782 22.75952,-0.24708 34.84638,-3.21772 7.97883,-1.96099 20.02862,-2.19097 29.27995,-5.21237 13.16355,-4.29909 23.50762,-11.66218 32.80399,-15.5165 6.57303,-2.72521 25.04019,0.63734 36.24315,-2.92244 23.80919,-7.56544 44.95133,-22.53356 61.2223,-25.94412 25.74047,-5.39546 55.45541,17.42391 80.54635,17.03954 32.4634,-0.49731 60.7633,-1.89003 88.8785,-9.55421 7.2293,-1.97069 11.7289,-9.12296 18.4204,-11.62846 5.9676,-2.23444 14.1695,0.20888 19.895,-2.10198"
       id="path4703"
       inkscape:connector-curvature="0"
       sodipodi:nodetypes="cscccccccssssssssssssssssc" />
    <path
       style="fill:#2ad4ff;fill-opacity:1;stroke:#000000;stroke-opacity:1"
       d="m 375.22006,156.53781 c 20.1486,-4.27704 44.76731,1.76013 64.27241,-5.64326 9.37741,-3.55931 26.23977,4.40049 40.5503,4.91062 13.43695,0.47898 24.41274,-6.49766 31.14668,-9.21533 0.19329,-0.0799 0.38843,-0.16682 0.58203,-0.24804 1.80818,2.51549 3.73034,4.7261 5.8418,6.48828 34.45359,28.75431 62.01111,46.02354 101.10547,52.87304 19.00427,3.32965 48.0995,-4.53127 67.90039,2.02344 23.01143,7.61749 35.16252,32.91988 63.16797,45.01563 21.1173,9.12071 50.6062,2.08867 80.58594,3.56445 17.55474,0.86415 34.33898,11.68555 52.20117,11.68555 32.36417,0 72.99469,15.83902 92.57422,14.24804 39.17416,-3.18318 46.50576,-16.31137 55.38866,-28.40429 11.3397,-15.43773 20.5414,-26.93506 51.4102,-45.48633 10.6572,10.20154 15.3077,18.45496 16.4004,34.85937 1.6807,25.23177 9.135,60.54342 11.9043,70.82813 3.3001,12.25579 0.3903,30.24019 2.7968,44.75977 2.5004,15.08577 -3.6308,30.36136 -0.7324,46.29296 2.4893,13.68258 -0.3847,27.89853 0.6699,41.33008 0.8257,10.51641 5.5799,20.27636 7.0918,30.75977 5.5906,38.76507 9.9753,73.29386 7.4629,110.9707 -0.9682,14.51902 1.9912,36.14724 2.4688,52.61133 0.2745,9.45866 6.836,19.50245 9.2793,30.17187 2.648,11.5633 1.3309,23.8603 5.5273,36.94532 1.2838,4.00313 3.0005,7.71101 5.0469,11.18554 -1.9837,8.03272 -18.3395,18.07932 -30.4785,24.9375 -6.775,3.82768 -13.4539,11.74162 -19.3711,19.48438 -3.9847,5.21401 -14.0674,9.90632 -18.625,16.15234 -4.254,5.82992 -3.5279,15.83915 -6.3535,22.75 -2.1229,5.19229 -8.9468,4.61738 -12.2098,9.96919 l 21.5351,0.18246 c 4.1203,-7.23047 0.1808,-22.63531 4.618,-27.36649 6.199,-6.60976 18.7839,-7.35412 23.2363,-15.14258 5.7854,-10.12033 16.8759,-12.00764 22.5684,-16.46875 5.3091,-4.16059 14.8757,-6.98033 18.0508,-10.77344 2.3269,-2.77973 6.7222,-4.55647 9.0058,-5.17578 10.8721,10.92078 24.3277,16.53813 34.5957,26.66797 11.6321,11.47553 19.2106,21.20043 29.2897,29.16888 8.5195,6.73542 3.2743,15.90114 12.5135,21.40215 l 28.2875,-0.81198 c -1.3598,-8.34838 -13.2913,-16.09926 -20.9383,-23.23756 -6.0414,-5.63949 -10.6834,-15.64711 -18.2754,-22.58789 -10.8254,-9.89681 -24.8824,-16.87993 -33.8887,-24.46484 -23.2026,-19.54074 -36.5078,-44.42299 -36.5078,-72.63281 0,-12.29094 -1.9414,-25.86949 -6.9844,-40.5293 -3.5668,-10.36858 0.2453,-25.38336 1.7071,-36.15039 4.4489,-32.76989 -4.7252,-60.52528 -3.8184,-85.58789 0.3837,-10.60502 -1.7344,-21.4443 0.3164,-32.29883 2.4438,-12.93503 8.8577,-25.89164 5.5332,-38.49805 -3.2801,-12.43831 2.6597,-31.15625 3.6739,-43.94531 2.1675,-27.33945 3.267,-48.43681 -1.7383,-70.49023 -3.1289,-13.78585 -1.2492,-28.04536 -3.3789,-43.48242 -1.3879,-10.0602 -7.765,-20.621 -7.0371,-31.875 0.578,-8.93572 6.0367,-24.19643 8.0878,-33.66993 3.1973,-14.76813 3.1677,-23.41975 2.3653,-33.2832 l 0.3945,-1.02539 c 13.9136,-6.92893 37.8948,-27.91769 52.3691,-43.0332 17.5339,-18.31029 36.5125,-34.11996 56.0547,-48.005862 l -841.55465,2.707021 c 11.29409,0.995652 34.84385,-2.08437 51.10051,2.644169 8.85581,2.575871 14.7939,11.236352 17.14335,15.456282 -4.40906,4.34691 -8.85841,10.31806 -16.93939,11.38996 -7.84962,1.0412 -17.48127,1.48334 -27.96099,0.28668 -7.87126,-0.89881 -15.32954,4.11923 -27.6586,4.88268 -7.02897,0.43525 -12.74222,7.06581 -20.44029,7.50954 -8.60574,0.49604 -16.2997,-2.90236 -25.99125,-1.39088 -13.85651,2.16104 -23.61854,12.28099 -37.60286,15.30805 -13.33096,2.88563 -25.9405,12.4078 -40.792,13.05661 -11.70656,0.51142 -23.34471,-2.06304 -34.52678,-0.33341 -10.104,1.56287 -28.21275,8.24177 -38.51551,8.07231 -12.82634,-0.21098 -20.29897,3.66791 -33.12026,5.47242 -4.3881,0.90716 -18.2874,4.84535 -18.38921,9.01092 l -0.51701,21.15394 c -0.0983,4.02063 10.13192,-3.47473 14.79271,-4.95756 6.92565,-2.2034 9.96793,-0.30988 16.60117,-1.865 19.80381,-4.48829 39.63538,-18.92217 59.03765,-20.13753 10.30744,-0.64566 22.07433,0.57951 31.69168,0.84597 6.15712,0.17059 11.82955,-2.9582 14.37461,2.30599 3.89335,15.4379 -85.73221,89.63204 -108.14086,191.58684 -3.06438,13.94234 -13.75727,30.93885 -17.27116,45.54239 -7.0881,29.45778 -6.68499,56.08932 -7.8178,80.27411 -0.74974,16.00645 0.7975,30.30797 -3.10474,43.33115 l 0.15511,74.30787 c 6.84152,1.61703 9.4221,-21.42776 8.70515,-30.24977 -1.154,-14.19979 7.9474,-29.11519 9.15981,-52.5414 1.18899,-22.97389 -2.46902,-50.34924 2.94195,-79.66388 1.87782,-10.17333 12.08798,-20.58023 14.06108,-31.11777 3.05512,-16.31617 6.20795,-32.10561 9.56537,-47.38119 2.97482,-13.53485 12.17696,-25.56209 12.23639,-38.50288 0.0719,-15.65568 12.40063,-28.1154 22.168,-38.90973 7.20978,-7.96783 14.07912,-16.91438 21.41513,-24.89909 10.63462,-11.57499 17.11603,-30.45003 24.65492,-43.99386 4.65356,-8.36026 7.07258,-16.16498 11.21966,-22.5675 4.80328,-7.4156 11.16792,-13.16639 13.93173,-19.17089 11.70977,-15.78915 32.43533,-25.13366 56.14654,-30.16695 z"
       transform="translate(0,2.0165354e-4)"
       id="path4689"
       inkscape:connector-curvature="0"
       sodipodi:nodetypes="sssccsssssssscssssssscsscssssccsssccssccssssssssscssssccsccscssssssssscssscsscsssccsssssssssscs" />
    <path
       style="fill:#ff0000;fill-opacity:1;stroke:#000000;stroke-opacity:1"
       d="m 362.87986,675.86855 c -6.45459,7.36275 -8.46114,10.32445 -18.55502,17.01999 -13.61619,9.03198 -27.73431,19.43157 -40.95043,25.4713 -7.27596,3.3251 -13.78074,7.31993 -20.94703,4.36101 -12.97459,-5.35715 -11.82724,2.21212 -35.04152,-23.19709 -8.28157,-9.06459 -15.35237,-16.7041 -19.12811,-37.04537 -1.17833,-6.34808 1.01591,-9.61286 4.93213,-24.71361 4.68468,-10.59277 5.25467,-21.66351 15.86127,-26.71428 11.2549,-8.72592 10.69777,-14.90511 22.3407,-14.90511 8.38893,0 20.2807,-3.3642 30.08359,-2.03593 16.10111,2.18167 33.13138,8.43646 42.86302,16.49764 8.01323,6.63773 7.23402,20.52021 13.98294,27.05029 11.02916,14.35825 13.30416,27.74378 4.55846,38.21116 z"
       id="path4725"
       inkscape:connector-curvature="0"
       sodipodi:nodetypes="csssssccssscc" />
    <path
       style="fill:#ff0000;fill-opacity:1;stroke:#000000;stroke-opacity:1"
       d="m 573.97151,205.16564 c 0,9.36601 -8.53533,7.73524 -15.92188,11.50271 -6.91543,3.52718 -12.427,12.57984 -20.29178,17.20401 -10.00486,5.88245 -16.41524,15.04058 -29.48215,15.04058 -14.75768,0 -24.44927,-4.51235 -37.21549,-11.17192 -16.91414,-8.82335 -23.87706,-8.98074 -26.6946,-25.43252 -1.05177,-6.14132 -4.85889,-18.14172 -2.2255,-24.79809 4.00551,-10.12468 7.28206,-18.38199 23.45568,-22.68096 7.7,-2.04668 16.36715,0.64105 22.58325,-0.83028 6.60599,-1.56361 10.76728,-7.22368 19.38238,-7.22368 16.7494,0 25.3836,12.10371 33.85575,20.95495 8.88263,9.28011 32.55434,12.44415 32.55434,27.4352 z"
       id="path4732"
       inkscape:connector-curvature="0"
       sodipodi:nodetypes="ssssssssssss" />
    <path
       style="fill:#ff0000;fill-opacity:1;stroke:#000000;stroke-opacity:1"
       d="m 1305.7143,224.50523 c 0,17.05917 -16.6336,29.65573 -28.5302,40.88528 -12.0375,11.36265 -19.4465,21.25757 -37.8983,21.25758 -13.2244,0 -34.6787,8.50517 -52.3743,1.28105 -10.0707,-4.11128 -18.924,-21.52697 -24.3503,-27.95193 -11.4905,-13.60533 0.296,-34.13459 0.296,-49.04341 0,-12.09113 19.4892,-27.46897 26.9087,-39.54115 6.6557,-10.82937 19.9554,-20.21287 26.5445,-26.98327 6.9151,-7.10541 7.2359,-11.33272 19.404,-11.33271 17.6628,0 36.6862,-7.47753 49.4438,10.08041 5.1161,7.04124 7.4686,27.13267 9.3029,38.84215 3.0923,19.74039 11.2532,31.33506 11.2532,42.506 z"
       id="path4735"
       inkscape:connector-curvature="0"
       sodipodi:nodetypes="ssssssssssss" />
    <path
       style="fill:#ff0000;fill-opacity:1;stroke:#000000;stroke-opacity:1"
       d="m 1123.7947,646.0285 c 0,10.19268 4.8208,21.27376 0,29.5447 -5.4622,9.36371 -15.8238,8.53711 -27.642,13.20269 -9.8826,3.90143 -20.7837,14.07369 -30.6904,14.07369 -14.6541,0 -38.1478,6.35383 -48.3943,-2.33733 -4.6773,-3.96735 2.6052,-13.99132 -1.5358,-20.16749 -6.2725,-9.3553 -8.4062,-23.72392 -8.4062,-34.31626 0,-10.38774 8.2554,-13.45124 13.1123,-20.42392 3.7127,-5.32987 7.1706,-19.58917 13.1623,-24.09053 9.8498,-7.39995 13.1044,-11.29647 26.5059,-11.29648 8.4333,0 20.0442,8.38601 25.6477,12.17631 7.1822,4.85817 13.2979,5.05238 19.2667,12.91413 7.1652,9.43741 18.9777,18.08184 18.9777,30.72049 z"
       id="path4738"
       inkscape:connector-curvature="0"
       sodipodi:nodetypes="sssssssssssss" />
    <path
       transform="matrix(0.96057135,-0.2780336,0.79808645,0.60254297,0,0)"
       style="fill:#502d16;fill-opacity:1;stroke:#000000;stroke-width:0.79520112;stroke-opacity:1"
       d="m 612.93643,765.16962 c 0,0 -6.39398,5.36543 -9.73259,7.78607 -2.39468,1.73626 -6.81022,3.93465 -10.74789,4.5863 -3.7475,0.62017 -7.12784,2.43579 -9.63891,2.42338 -4.10176,-0.0203 -11.25711,1.52131 -15.53037,2.32411 -4.15883,0.7813 -4.38212,-1.34044 -6.81317,-1.24569 -4.6809,0.18244 -11.43224,5.30284 -11.43224,5.30284 0,0 0.45341,-1.73343 1.2039,-5.80191 0.35694,-1.93496 -0.22669,-5.60547 -1.58002,-7.82519 -1.4122,-2.31627 -3.37767,-4.3216 -6.22813,-5.6369 -2.7412,-1.26488 -6.15401,-1.19954 -9.31767,-0.83464 -3.24002,0.37373 -6.31652,1.29017 -8.48889,2.15663 -4.57411,1.82444 -10.31333,5.57619 -10.31333,5.57619 0,0 -7.13755,-0.72744 -12.84052,-6.2559 -4.1154,-2.85266 0.67841,-4.672 -7.33615,-6.04221 -0.89709,-0.7103 -1.91953,1.32072 -1.91953,1.32072 0,0 -9.38442,4.04004 -17.21595,10.3344 -9.13357,7.34087 -20.65467,17.94289 -21.19283,19.27326 -1.55794,3.85173 -11.13487,16.6545 -14.10766,26.82781 -2.94505,10.07864 -12.4299,18.58747 -13.36326,20.28309 -4.7236,8.58173 -15.9803,22.78002 -23.0752,32.71046 -7.56085,10.58273 -11.69742,12.70591 -23.9509,28.46152 -9.86211,12.68079 -23.91072,25.9242 -42.29506,48.05146 -12.78391,15.38663 -20.63981,31.61751 -30.72064,44.42297 -8.45635,10.74201 -19.19714,18.21501 -28.72867,29.11471 -6.98606,7.9888 -12.94459,17.8013 -20.53571,24.8696 -9.23288,8.597 -14.53387,15.5881 -22.47696,22.5965 -8.84449,7.8037 -14.21597,11.2773 -19.86104,15.5153 l -3.75544,-8.3353 c -0.41046,-0.9109 7.63156,-5.1273 9.11716,-6.5599 4.79993,-4.6287 17.38266,-12.9216 24.46351,-20.7199 8.61292,-9.4854 12.04154,-19.0066 20.89125,-30.0442 8.4461,-10.5342 18.09188,-15.105 27.22329,-24.24982 6.63024,-6.6399 11.12656,-14.86186 18.05159,-23.19678 3.66591,-4.41226 12.63956,-13.87894 17.0743,-20.52044 5.46977,-8.19159 7.95562,-16.33023 13.02878,-21.41243 12.03441,-12.05585 26.19762,-31.04637 34.85925,-39.72878 12.3973,-12.42695 23.00693,-28.59802 32.32326,-39.68478 8.09383,-9.63142 11.98526,-21.58526 17.9775,-31.03583 6.89235,-10.87012 12.89769,-21.95533 19.57877,-28.74063 4.72107,-4.79475 12.31076,-14.05282 19.53179,-19.87965 10.17928,-8.21406 19.6769,-12.48232 19.81661,-12.81336 0,0 -6.96963,-2.98323 -8.62079,-4.46232 -6.68335,-5.9869 -13.92567,-10.10166 -16.94521,-12.15659 -4.16121,-2.83186 -13.24764,-18.96261 -19.14157,-23.03548 -9.69253,-6.69782 -19.01645,-3.03095 -26.5979,-3.03094 -14.13966,0 -18.21921,-15.79569 -29.65365,-19.21496 -7.62002,-2.27865 -16.07284,-11.49695 -20.62409,-19.08487 -4.61527,-7.69465 -13.46116,-8.72655 -20.60402,-13.01439 -5.64015,-3.38575 -6.01947,-9.2702 -11.97703,-14.77262 -4.09754,-3.78448 -13.46258,-9.12029 -17.3412,-13.0541 -4.31817,-4.37956 -7.02632,-8.39876 -11.66979,-10.84667 -3.36153,-1.77212 -8.54294,-1.96413 -12.21942,-4.50263 -2.61917,-1.80843 -7.83294,-7.97988 -9.6139,-16.73926 -0.557,-2.73957 -2.28181,-9.42579 -1.25704,-17.83627 0.7651,-6.2792 4.27671,-13.86702 4.39708,-19.61484 0.20538,-9.80626 -2.21943,-15.75446 -3.63907,-16.90332 -0.64563,-0.52248 -2.16171,1.55734 -4.00534,2.7343 -2.1496,1.37228 -4.73493,2.16651 -6.75838,6.16715 -0.90906,1.79733 -0.81525,4.53501 -1.97596,6.92287 -1.45928,3.00211 -0.88354,4.39964 -0.92459,6.90955 -0.0383,2.3429 -0.77001,5.81632 0.0433,8.08458 0.92561,2.58159 -0.76311,5.45621 -0.49373,7.74973 0.21964,1.86994 -1.26822,5.5938 -2.07825,6.80016 -1.05111,2.11217 -0.34248,3.92053 -1.73092,7.96248 -1.38551,4.03342 -0.15657,7.53386 -4.57252,13.12189 -4.44033,5.61887 -6.87199,13.47533 -8.36301,17.14093 -2.82523,6.94568 -4.06275,9.03473 -6.9661,11.83769 -1.74504,1.68471 -5.30091,4.8704 -8.54007,7.22079 -10.60218,7.69312 -12.21784,9.64815 -23.9986,15.59011 -5.04405,2.54411 -13.22532,10.13812 -21.81035,16.25914 -4.52208,3.22418 -11.02567,9.12551 -12.93838,13.66067 -1.91469,4.53985 1.71901,4.82111 0.54428,9.23325 -5.81187,10.75266 -12.4643,17.17686 -17.32026,25.17365 -3.70476,6.10101 -2.40457,9.47938 -3.26084,14.25179 -1.69578,9.45132 -5.52642,14.30036 -8.6749,20.42727 -3.34899,6.5171 -7.11563,13.86843 -6.65088,18.89689 0.27742,3.00182 0.69838,7.45991 1.64308,10.6287 0.83919,2.81485 2.3183,4.17627 1.04816,9.19319 -1.11946,4.42176 0.18815,12.37905 -3.41608,20.17101 -3.02348,6.53642 -10.95923,12.8164 -12.51206,18.15917 -2.54783,8.76622 1.97492,9.98817 -0.0481,20.67767 -1.31875,6.96819 -6.42797,17.2108 -6.27147,24.35067 0.17448,7.95966 -0.57871,17.10357 -5.49733,26.9731 -5.50591,11.04795 -15.346508,22.77129 -17.261057,30.08582 -2.534364,9.68253 -8.473982,16.86538 -14.12694,24.48585 -9.950924,13.41433 -21.549489,25.49297 -30.256317,35.70049 -9.995116,11.7179 -19.531477,19.8121 -29.640918,26.6323 -10.821931,7.3009 -22.57405857,15.5261 -32.602012,22.6259 -3.32725,2.3557 -26.555991,10.92 -36.408055,21.8442 -6.901231,7.6522 -5.127198,4.8645 -7.796169,7.0905 -5.334894,4.4496 -4.684274,3.8311 -5.846801,8.0179 0.968673,1.8913 1.909094,1.9948 4.275136,2.9967 7.46181,3.1598 13.171233,8.4179 17.858145,11.4826 10.345675,6.7648 35.3131916,5.9968 44.2965323,10.543 17.1482607,8.6782 36.1614927,3.0487 50.1417807,7.0663 14.206908,4.0827 25.391531,1.6501 34.39074,3.0537 9.321885,1.4539 19.353065,1.2177 19.353065,1.2177 l -10.1244,13.5766 c -2.056563,2.7578 -9.090635,1.7953 -12.26107,0.7843 -4.42183,-1.41 -5.734489,-3.4313 -10.114841,-3.7714 -5.948508,-0.4618 -21.931004,4.1153 -32.232412,2.955 -8.365533,-0.9422 -8.521336,-4.6438 -15.360921,-6.5288 -7.528306,-2.0748 -25.1873671,-4.8784 -35.7068124,-8.9362 -8.1850876,-3.1574 -19.0226446,-1.9808 -26.0721256,-4.5901 -14.504677,-5.3686 -29.025355,-6.0152 -44.800866,-15.0634 -6.214574,-3.5644 -9.555674,-22.331 -16.49177,-25.414 -8.028742,-3.5686 -8.299192,-9.5104 -12.916052,-17.4469 -4.91285,-8.4454 -16.75789,-12.6218 -26.41868,-17.0796 -7.13395,-3.2919 -18.84934,-5.5056 -25.2669,-8.9666 -8.1763,-4.4094 -10.26873,-13.1209 -15.78126,-20.6437 -6.77843,-9.2504 -25.78572,-8.731 -34.08382,-14.5509 -11.68234,-8.1935 -13.39518,-21.26857 -25.65345,-26.97639 -6.73037,-3.13384 -3.6795,-19.06308 -8.53539,-23.18055 -6.92892,-5.87527 -16.45024,-6.99777 -23.70577,-10.42474 -10.2017,-4.81843 -25.60708,-4.65704 -36.79759,-5.86071 -7.09291,-0.76293 -13.99844,-1.34043 -20.22724,-2.41793 -17.29538,-2.99184 -33.48081,-6.57931 -44.91063,-7.06328 -2.57546,-0.10905 -5.2691,-3.28284 -9.85343,-3.4251 -3.80956,-0.11824 -5.52488,1.42722 -8.62654,1.32761 l 6.18167,-7.44524 c 0,0 6.01062,-2.31085 12.59367,-2.85567 5.57781,-0.46163 12.15643,3.03846 21.35087,3.64973 7.24777,0.48185 10.48031,3.21407 17.17655,4.02031 6.93592,0.83509 10.81719,-0.16352 17.11571,0.55576 10.28738,-7.12038 16.81454,-7.0209 24.69614,-12.47872 12.69362,-8.79002 23.06963,-4.08247 43.14118,-16.35431 5.76139,-3.52253 27.56456,-8.74456 34.71264,-25.83809 7.66815,-18.33723 8.74432,-31.67954 15.09366,-41.44613 12.70009,-19.53535 23.36666,-34.18324 33.27946,-38.03593 12.30363,-4.78189 21.28253,-7.88445 36.71906,-12.17428 5.57071,-1.54811 13.13371,-0.82777 20.37696,-3.80733 13.202976,-5.43114 26.441067,-13.67256 36.204457,-17.44059 6.976103,-2.69232 24.00955,-15.02744 33.573114,-18.7356 14.606095,-5.66336 23.5572043,-11.45423 34.5556956,-15.31299 17.5320854,-6.15105 19.7194784,-6.0778 36.2928644,-16.13637 8.477754,-5.14524 24.840859,-17.98045 37.533057,-24.48816 9.906543,-5.0794 16.388942,-4.01877 22.921519,-7.40954 1.579958,-0.82009 5.522473,-3.01645 8.827753,-2.99932 2.56699,0.0133 4.61369,1.90929 5.74097,3.31682 1.69622,2.11789 -2.13258,8.32614 -1.59436,11.78469 0.70293,4.51693 5.80612,6.37404 9.4593,8.90634 6.19617,4.29502 14.8179,3.35922 21.89306,3.15777 5.81667,-0.16561 10.39041,0.90476 13.41093,-0.57444 16.14505,-7.9065 32.02826,-20.94292 45.103,-29.78254 14.54523,-9.83379 27.04234,-13.02676 36.013,-24.55622 2.82468,-3.63039 6.06524,-6.84174 7.49857,-10.25173 1.42957,-3.40108 1.05378,-7.00138 2.44638,-10.19123 2.25305,-5.16079 6.07878,-10.08629 7.81181,-14.47728 2.43191,-6.16173 5.06251,-13.01383 5.33009,-19.99347 0.22652,-5.90844 -1.85414,-11.9373 -0.83581,-17.41632 1.27763,-6.8741 6.07982,-14.07252 8.31432,-16.71661 5.99999,-7.14574 10.51394,-8.81441 9.58238,-15.44511 -1.2368,-8.80343 -4.09091,-16.9875 -8.98633,-22.41065 -4.21458,-4.66891 -23.57471,-3.29596 -30.0469,-5.92549 -5.25508,-2.13503 -11.18046,-10.67688 -17.52339,-13.73182 -9.65812,-4.6516 -13.95259,-7.4589 -23.32868,-8.00646 -10.02378,-0.5854 -1.55036,-15.60009 -7.94066,-17.46856 -5.25152,-1.53549 -5.49312,-0.44075 -4.61782,-8.72027 l 8.5097,-4.59104 c 2.0554,-1.1089 5.44603,4.10322 6.88773,4.92243 5.65338,3.21239 5.92344,12.57022 7.58605,15.48178 4.25431,6.67854 10.26833,4.47007 18.46174,8.25079 6.45617,2.97909 11.82585,7.19861 18.20807,9.97071 5.67681,2.4657 18.7498,5.62116 22.88489,8.22254 4.26402,2.68249 9.07418,3.72123 16.18514,9.87957 3.72679,3.22752 4.65635,5.26312 5.78919,13.12063 0.56286,3.90404 5.26993,9.04656 4.09328,16.26077 -1.44346,8.85002 -0.98078,13.66751 -1.22844,20.25705 -0.27789,7.39387 -2.55964,17.3001 0.014,22.74776 3.2984,6.98182 3.16752,16.46053 11.2457,20.48849 4.55568,2.27156 7.93692,6.0497 12.58012,7.71024 6.37114,2.27851 13.78426,2.57072 17.7033,7.75632 4.26681,5.64576 8.88359,15.9152 14.08411,22.43827 5.55853,6.97212 16.03299,10.3695 21.74756,15.23597 3.89643,3.31815 6.70242,8.43447 11.77611,11.29947 6.1116,3.45107 12.00385,5.54951 14.60071,10.43338 3.7851,7.11855 10.44001,8.38625 15.22402,14.06566 4.04742,4.80495 16.4229,2.43841 19.68283,6.63358 3.34802,4.30852 12.74611,4.3433 17.78386,7.67924 5.27037,3.48997 6.20911,10.24196 10.90631,12.99014 7.98361,4.67096 9.91526,7.64446 14.98788,12.77934 3.94042,3.98877 11.07531,10.46889 16.09094,12.45605 6.56617,2.60147 17.26466,5.14228 21.83241,6.67276 3.92958,1.31666 9.66118,3.36273 11.94187,4.19612 0,0 6.28364,-5.43279 11.99783,-6.40497 5.53943,-0.94241 12.39105,-1.40259 16.12974,0.32256 1.78637,0.8243 8.19996,3.05775 9.25775,5.37832 0.54942,1.20532 1.84354,3.78775 1.35175,6.72264 -0.66564,3.97263 -1.19163,4.08106 -1.19163,4.08106 0,0 3.70018,-0.76013 6.43578,-0.76093 2.61559,-7.7e-4 6.04559,-0.98443 8.90517,-0.44632 1.15527,0.2174 3.48798,0.60655 5.04662,0.53106 3.25934,-0.15785 6.14096,-1.17336 9.46583,-2.62428 1.83834,-0.80223 4.67856,-4.38508 6.70531,-5.72907"
       id="path4753"
       inkscape:connector-curvature="0"
       sodipodi:nodetypes="cssssscsssssccccssscssssssscssssssssssssscssssssssssssssssssssscsssssssscsssssssssssssssssscssssscsssssssssssssssssssssccssscsssssssssssssssssssssssssscsssssscsscsssssssssssssssssssssscsssscssssc" />
    <path
       style="fill:#8dd35f;fill-opacity:1;stroke:#000000;stroke-opacity:1"
       d="m 809.51993,659.43241 c 2.05958,-5.28098 8.99663,-10.20705 11.52091,-13.6934 5.94561,-8.21165 7.51026,-22.24644 11.34925,-26.31806 3.84662,-4.07973 11.01656,-7.76354 12.33109,-16.44744 1.34222,-8.86681 -1.56941,-19.78132 -0.60855,-22.67805 2.51101,-7.57002 2.32815,-19.70795 -2.81474,-29.86272 -5.22574,-10.31836 -15.41349,-18.64447 -12.86516,-25.08697 3.49107,-8.82585 -13.12084,-16.93919 -25.7763,-28.5788 -4.46928,-4.11054 -9.9373,-7.27498 -12.89131,-11.99136 -3.60747,-5.75973 -4.37633,-12.99916 -6.36701,-16.68131 0,0 0.73549,-5.66445 -3.24102,-11.47585 -1.54882,-2.26349 -5.7778,-4.54927 -8.10144,-6.53133 -3.20255,-2.73176 -10.35435,-3.56791 -14.01242,-6.35024 -5.46744,-4.15854 -7.13242,-10.18713 -8.29024,-13.48907 -1.47646,-4.21066 -7.93305,-9.90949 -9.9204,-15.6359 -1.23562,-3.56035 -4.33377,-5.0421 -6.59883,-8.16295 -2.21504,-3.05193 -3.59966,-7.75233 -4.62192,-10.40446 -2.13584,-5.54117 -2.94406,-10.15061 -4.26886,-14.17974 -3.91373,-2.2645 -4.94063,0.84726 -10.75203,3.5381 -4.28328,1.98328 -9.98144,1.88071 -13.42732,3.85906 -4.81586,2.76489 -12.47708,1.87394 -18.31677,2.70466 -7.6398,1.0868 -18.08933,0.81582 -25.31228,-1.44261 -10.04412,-3.14052 -11.79374,-6.82107 -19.52794,-4.90761 -11.22173,2.77628 -14.72493,16.49164 -20.42945,22.91164 -4.57837,5.1526 -10.78072,14.66653 -16.43272,23.14323 -6.11083,9.16483 -16.69623,13.69253 -25.29165,21.46674 -6.13018,5.5445 -16.07957,13.27329 -21.72443,20.61878 -6.57393,8.55446 -9.07061,16.80915 -20.15696,23.89588 -6.06897,3.87947 -17.95808,7.7627 -25.49037,12.28532 -12.19002,7.31927 -19.97119,15.31288 -25.518,20.20205 -5.87823,5.1813 -2.18624,12.03408 5.63149,25.7294 7.22815,12.66247 18.56609,32.20556 15.33095,37.27552 -8.11285,12.71408 -15.78002,18.35198 -23.9466,25.62242 -7.25612,6.45989 -8.82481,6.84663 -15.40812,11.96292 -8.14383,6.32908 -17.56235,10.1157 -16.75147,11.58301 2.84506,1.13113 7.20016,1.70513 8.97836,1.44153 4.82831,-0.71573 10.45948,-4.90433 16.51264,-5.06039 13.52517,-0.3487 32.32249,-5.60774 46.31621,-7.00989 13.4787,-1.35054 26.17172,5.99791 41.01129,7.86075 9.63223,1.20915 16.4611,8.95446 26.19986,10.69068 8.47806,1.51146 26.33889,3.42909 35.83682,0.44376 14.10577,-4.43365 22.41887,-0.80725 35.7405,3.65226 6.98818,2.33935 13.04702,3.73946 28.61875,4.94543 20.2649,1.56943 37.41255,-4.32938 46.1797,-1.97322 9.19353,2.47076 24.18712,7.7206 32.42827,8.75045 10.3074,1.28805 22.26537,0.41076 32.33435,3.8651 4.0252,1.38092 8.88166,4.91793 11.71207,4.31752 1.69899,-1.93067 -1.25781,-2.70514 -0.50218,-6.66127 0.44574,-2.33377 0.39786,-5.74325 1.33398,-8.14357 z"
       transform="translate(0,2.0165354e-4)"
       id="path4756"
       inkscape:connector-curvature="0"
       sodipodi:nodetypes="ssssssssssssssssscsssssssssssssssscssssssssssscss" />
  </g>
</svg>
